<svg width="99" height="98" viewBox="0 0 99 98" fill="none" xmlns="http://www.w3.org/2000/svg">
<g clip-path="url(#clip0_93_271)">
<g clip-path="url(#clip1_93_271)">
<path d="M79.2522 18.593H18.7842V73.5877H79.2522V18.593Z" fill="white"/>
<path fill-rule="evenodd" clip-rule="evenodd" d="M97.9854 49C97.9854 76.0263 76.0768 97.9349 49.0505 97.9349C22.0246 97.9349 0.115723 76.0263 0.115723 49C0.115723 21.9741 22.0246 0.0651855 49.0505 0.0651855C76.0768 0.0651855 97.9854 21.9741 97.9854 49ZM35.1838 68.4736H25.6869C23.6914 68.4736 22.7056 68.4736 22.1046 68.0892C21.4554 67.6682 21.0587 66.9711 21.0106 66.2015C20.9746 65.4926 21.4675 64.6267 22.4532 62.8956L45.9022 21.5636C46.8999 19.8085 47.4049 18.9309 48.042 18.6063C48.7271 18.2577 49.5446 18.2577 50.2299 18.6063C50.867 18.9309 51.3719 19.8085 52.3697 21.5636L57.1903 29.9786L57.2149 30.0215C58.2925 31.9044 58.839 32.8593 59.0777 33.8615C59.3421 34.9554 59.3421 36.1094 59.0777 37.2034C58.8372 38.2132 58.2962 39.1749 57.2023 41.0863L44.8851 62.8596L44.8533 62.9154C43.7684 64.8138 43.2187 65.776 42.4568 66.5019C41.6273 67.2955 40.6296 67.8721 39.5356 68.1973C38.5378 68.4736 37.4199 68.4736 35.1838 68.4736ZM59.1666 68.4736H72.7745C74.7821 68.4736 75.7921 68.4736 76.3934 68.0774C77.0425 67.6566 77.451 66.947 77.4875 66.1781C77.522 65.4919 77.0398 64.6598 76.0951 63.0293C76.0625 62.9738 76.0298 62.9173 75.9967 62.8599L69.1804 51.1992L69.1028 51.0679C68.1449 49.4482 67.6615 48.6302 67.0405 48.314C66.3556 47.9654 65.5497 47.9654 64.8647 48.314C64.2396 48.6385 63.7347 49.4922 62.737 51.2111L55.9448 62.8719L55.9216 62.912C54.9273 64.6284 54.4304 65.4861 54.4663 66.1898C54.5143 66.9593 54.911 67.6682 55.5601 68.0892C56.1492 68.4736 57.159 68.4736 59.1666 68.4736Z" fill="#E84142"/>
</g>
</g>
<defs>
<clipPath id="clip0_93_271">
<rect width="98" height="98" fill="white" transform="translate(0.0839844)"/>
</clipPath>
<clipPath id="clip1_93_271">
<rect width="98" height="98" fill="white" transform="translate(0.0839844)"/>
</clipPath>
</defs>
</svg>
