<svg width="99" height="98" viewBox="0 0 99 98" fill="none" xmlns="http://www.w3.org/2000/svg">
<g clip-path="url(#clip0_93_206)">
<g clip-path="url(#clip1_93_206)">
<g clip-path="url(#clip2_93_206)">
<path d="M49.8021 97.1047C76.5357 97.1047 98.2074 75.3677 98.2074 48.5523C98.2074 21.7368 76.5357 0 49.8021 0C23.0684 0 1.39648 21.7368 1.39648 48.5523C1.39648 75.3677 23.0684 97.1047 49.8021 97.1047Z" fill="#4793FF"/>
<path d="M49.8022 0C76.4929 0 98.2076 21.7805 98.2076 48.5523C98.2076 75.324 76.4929 97.1047 49.8022 97.1047V0Z" fill="#5E69E2"/>
<path d="M49.8019 84.9158C69.8241 84.9158 86.0554 68.6361 86.0554 48.5525C86.0554 28.4688 69.8241 12.1892 49.8019 12.1892C29.7795 12.1892 13.5483 28.4688 13.5483 48.5525C13.5483 68.6361 29.7795 84.9158 49.8019 84.9158Z" fill="#2EBEEF"/>
<path d="M49.8022 12.1892C69.7925 12.1892 86.0558 28.5003 86.0558 48.5525C86.0558 68.6045 69.7925 84.9158 49.8022 84.9158V12.1892Z" fill="#4793FF"/>
<path d="M47.4426 24.121L32.2528 46.9746C31.6176 47.9286 31.6176 49.174 32.2528 50.1304L47.4426 72.984C48.5651 74.6736 51.0396 74.6736 52.1623 72.984L67.3519 50.1304C67.9873 49.174 67.9873 47.9286 67.3519 46.9746L52.1623 24.121C51.0396 22.4313 48.5653 22.4313 47.4426 24.121Z" fill="#76E5F6"/>
<path d="M49.8022 52.2277V74.2511C50.7015 74.2511 51.6007 73.8287 52.1621 72.9839L67.3519 50.1303C67.6471 49.686 67.8035 49.1787 67.8241 48.6689L50.3583 52.1719C50.1748 52.2083 49.9884 52.2277 49.8022 52.2277Z" fill="#2EBEEF"/>
<path d="M49.8015 22.8535C48.9022 22.8535 48.003 23.2761 47.4417 24.1209L32.2519 46.9745C31.9122 47.4866 31.756 48.0789 31.7797 48.6689L49.2452 52.1718C49.4289 52.2082 49.6153 52.2276 49.8015 52.2276V22.8535Z" fill="#C2F4FB"/>
</g>
</g>
</g>
<defs>
<clipPath id="clip0_93_206">
<rect width="98" height="98" fill="white" transform="translate(0.520996)"/>
</clipPath>
<clipPath id="clip1_93_206">
<rect width="98" height="98" fill="white" transform="translate(0.520996)"/>
</clipPath>
<clipPath id="clip2_93_206">
<rect width="98" height="98" fill="white" transform="translate(0.520996)"/>
</clipPath>
</defs>
</svg>
