<svg width="210" height="69" viewBox="0 0 210 69" fill="none" xmlns="http://www.w3.org/2000/svg">
<g clip-path="url(#clip0_15_6371)">
<path fill-rule="evenodd" clip-rule="evenodd" d="M23.3144 12H45.0169L55.9065 23.1006H34.204L34.1273 23.1793V23.1006L23.3153 12.0009L34.1273 23.1793H12.4248L23.3144 12ZM34.1273 45.4594H55.8298L45.0169 56.56H23.2378L12.4248 45.4592V23.1793H34.0507L23.2759 34.2407L23.3144 34.2799V34.3588L34.1273 45.4594ZM45.0169 34.2801L44.9402 34.2799L34.1273 23.1793H55.8298L45.0169 34.2801ZM45.0169 34.2801H45.0936L55.9065 45.3807H34.204L45.0169 34.2801ZM69.7105 37.9016C69.4037 38.2165 68.9436 38.374 68.4068 38.374L68.3301 38.4527C67.5632 38.4527 66.9497 38.1379 66.643 37.508C66.3362 36.7994 66.1829 35.8548 66.1829 34.6738V34.3589C66.1062 33.4142 66.2595 32.4694 66.643 31.6034C66.9497 30.8949 67.4865 30.58 68.3301 30.58C68.9436 30.58 69.327 30.8161 69.6338 31.2098C69.9405 31.6822 70.0939 32.312 70.0939 32.8631L74.0817 32.7843C74.1584 31.2885 73.6215 29.714 72.5479 28.6905C71.4743 27.667 70.0939 27.1947 68.3301 27.1947C66.2595 27.1947 64.6491 27.8245 63.4988 29.1629C62.3485 30.5012 61.8116 32.2332 61.8116 34.3589V34.6738C61.6583 36.5633 62.3485 38.374 63.4988 39.8699C64.6491 41.1295 66.2595 41.8381 68.4068 41.8381C69.9405 41.8381 71.3976 41.3656 72.5479 40.3422C73.6215 39.3975 74.2351 37.9804 74.1584 36.4845H70.1706C70.1706 37.1144 70.0172 37.5867 69.7105 37.9016ZM82.1338 31.2098H83.7443L84.2044 27.1947C83.7443 27.0372 83.3609 27.0372 82.9774 27.0372C82.3639 27.0372 81.7504 27.2734 81.2903 27.667C80.7535 28.1394 80.37 28.6905 80.1399 29.3991L79.9866 27.2734H75.9222V41.5231H80.2166V32.1545C80.37 31.8397 80.6001 31.6034 80.9069 31.446C81.2136 31.2885 81.6738 31.2098 82.1338 31.2098ZM92.0266 35.3036L91.9499 35.2249L91.7965 35.1462L89.6492 27.1947H85.048L89.8793 41.6018L89.5725 42.5466C89.4191 42.9402 89.1891 43.2552 88.8824 43.4913C88.5756 43.7275 88.1155 43.8062 87.4253 43.8062L87.1952 43.7275H86.9652L86.4284 46.8766C86.9652 47.0341 87.3486 47.1128 87.5786 47.1128C87.8087 47.1915 88.1155 47.1915 88.4989 47.1915C89.956 47.1915 91.0296 46.8766 91.7198 46.1681C92.41 45.4595 92.9468 44.5935 93.4069 43.5701L98.9288 27.2734H94.3272L92.0266 35.3036ZM108.054 31.5247C108.437 32.2332 108.591 33.2568 108.591 34.4376L108.514 34.5163V34.7525C108.591 35.6973 108.437 36.5633 108.054 37.4293C107.747 38.0591 107.211 38.374 106.444 38.374C106.06 38.374 105.6 38.2953 105.217 38.1379C104.91 37.9804 104.45 37.4293 104.45 37.4293V31.446C104.603 31.1311 104.91 30.8161 105.217 30.6587C105.524 30.5012 105.984 30.4225 106.444 30.4225C107.134 30.4225 107.747 30.8161 108.054 31.5247ZM111.505 39.7911C112.425 38.5315 112.886 36.7994 112.886 34.6738V34.5163C112.962 32.6269 112.503 30.7374 111.505 29.1629C110.585 27.8245 109.204 27.116 107.518 27.116C106.214 27.0372 104.986 27.7458 104.297 28.9267L104.143 27.3521H100.079V46.9553H104.373V40.2635C105.14 41.2082 106.291 41.7593 107.518 41.7593C109.128 41.7593 110.585 41.0507 111.505 39.7911ZM119.941 27.2734V23.7307L119.864 23.8093H115.493V27.3521H113.575V30.4225H115.493V36.9569C115.493 38.689 115.876 39.8699 116.643 40.6571C117.334 41.4444 118.407 41.8381 119.864 41.8381C120.785 41.8381 121.705 41.7593 122.548 41.5231L122.241 38.2165C121.858 38.2953 121.474 38.2953 121.014 38.2953C120.785 38.2953 120.478 38.2165 120.247 37.9804C120.018 37.7442 119.941 37.3505 119.941 36.8782V30.3438H122.318V27.2734H119.941ZM128.223 37.3505C127.84 36.642 127.686 35.6973 127.686 34.5163V34.2014C127.686 33.0992 127.84 32.1545 128.223 31.446C128.607 30.7374 129.22 30.4225 130.063 30.4225C130.907 30.4225 131.52 30.7374 131.904 31.446C132.287 32.312 132.441 33.2568 132.441 34.2014V34.5163C132.441 35.6973 132.287 36.642 131.904 37.3505C131.52 38.0591 130.907 38.374 130.063 38.374C129.22 38.374 128.607 38.0591 128.223 37.3505ZM125.156 29.0841C123.929 30.5012 123.315 32.3907 123.391 34.2802H123.315V34.5951C123.238 36.4845 123.852 38.374 125.079 39.7911C126.306 41.0507 127.993 41.7593 130.063 41.7593C132.134 41.7593 133.821 41.1295 134.972 39.7911C136.122 38.4527 136.735 36.7208 136.735 34.5951V34.2802C136.812 32.3907 136.198 30.5012 134.972 29.0841C133.821 27.7458 132.134 27.0372 130.063 27.0372C127.993 27.0372 126.306 27.7458 125.156 29.0841ZM142.723 27.3521L142.717 27.2734L142.87 27.3521H142.723ZM142.723 27.3521H138.806V41.6018H143.101V31.3672C143.561 30.8161 144.251 30.5012 144.941 30.5012C145.631 30.5012 146.091 30.6587 146.398 30.9736C146.705 31.2885 146.858 31.9183 146.858 32.7057V41.5231H151.152V32.7057C151.152 30.7374 150.769 29.3203 150.002 28.3756C149.235 27.5096 148.162 27.0372 146.781 27.0372C146.014 26.9585 145.247 27.1947 144.557 27.5883C143.868 27.982 143.33 28.533 142.87 29.2416L142.723 27.3521ZM158.131 31.1311C158.438 30.6587 158.898 30.4225 159.512 30.4225C160.201 30.4225 160.585 30.58 160.892 30.9736C161.199 31.3672 161.352 31.9183 161.352 32.6269V32.9418H157.595C157.671 32.1545 157.824 31.6034 158.131 31.1311ZM154.91 39.7911C156.137 41.1295 157.748 41.7593 159.818 41.7593V41.8381C160.892 41.8381 161.889 41.6806 162.886 41.3656C163.729 41.0507 164.573 40.6571 165.263 40.1847L164.266 37.508C163.04 38.1379 161.735 38.374 160.432 38.374C159.665 38.374 158.974 38.1379 158.515 37.6654C157.978 37.1931 157.748 36.5633 157.595 35.776H165.57V33.4142C165.646 31.7609 165.11 30.0289 163.959 28.7692C162.886 27.5883 161.429 27.0372 159.512 27.0372C157.441 27.0372 155.907 27.7458 154.757 29.0841C153.607 30.4225 153.07 32.1545 153.07 34.3589V34.8313C152.993 36.642 153.684 38.4527 154.91 39.7911ZM179.373 35.5398H179.297H179.22L176.843 27.2734H174.082L171.782 35.5398H171.705L170.171 27.2734H166.184L169.481 41.5231H173.162L175.462 33.9653H175.539L177.839 41.5231H181.521L184.818 27.2734H180.831L179.373 35.5398ZM193.1 36.5633C193.407 36.8782 193.638 37.508 193.638 37.508V37.5868C193.638 38.0591 193.484 38.374 193.178 38.5315C192.871 38.7676 192.411 38.8464 191.873 38.8464C191.183 38.8464 190.647 38.689 190.263 38.374C189.88 38.1379 189.65 37.6654 189.65 36.9569L185.739 37.0356C185.739 38.2165 186.276 39.3975 187.349 40.3422C188.422 41.3656 189.88 41.8381 191.797 41.8381C193.331 41.9167 194.865 41.4444 196.168 40.5784C197.318 39.7911 197.855 38.689 197.855 37.4293C197.932 36.2484 197.472 35.2249 196.628 34.5163C195.478 33.7291 194.251 33.2567 192.871 33.0205C192.104 32.9418 191.413 32.7057 190.723 32.312C190.417 32.0758 190.187 31.7609 190.187 31.3672C190.187 30.9736 190.34 30.6587 190.647 30.4225C190.954 30.1076 191.337 30.0289 191.797 30.0289C192.411 30.0289 192.794 30.1863 193.1 30.5012C193.407 30.8161 193.561 31.2098 193.561 31.7609L197.778 31.6822C197.778 30.3438 197.165 29.0841 196.168 28.3756C195.018 27.5096 193.561 27.116 191.72 27.116C190.033 27.116 188.576 27.5096 187.579 28.3756C186.583 29.0841 186.045 30.2651 186.045 31.5247C186.045 32.6269 186.429 33.6503 187.272 34.3589C188.346 35.1462 189.65 35.6185 190.954 35.8548C191.72 35.9334 192.411 36.1696 193.1 36.5633Z" fill="#FAFAFA"/>
</g>
<defs>
<clipPath id="clip0_15_6371">
<rect width="185.952" height="44.56" fill="white" transform="translate(12.0234 12)"/>
</clipPath>
</defs>
</svg>
