<svg width="210" height="69" viewBox="0 0 210 69" fill="none" xmlns="http://www.w3.org/2000/svg">
<g clip-path="url(#clip0_15_6327)">
<g clip-path="url(#clip1_15_6327)">
<mask id="mask0_15_6327" style="mask-type:luminance" maskUnits="userSpaceOnUse" x="12" y="12" width="186" height="45">
<path d="M12.0312 12.405H197.969V56.155H12.0312V12.405Z" fill="white"/>
</mask>
<g mask="url(#mask0_15_6327)">
<path d="M73.157 24.3871C73.0737 25.5641 72.6458 26.4912 71.8734 27.1683C71.1016 27.8438 70.0841 28.1816 68.8211 28.1816C67.4398 28.1816 66.3539 27.7095 65.5633 26.7652C64.7711 25.822 64.375 24.5259 64.375 22.8769V22.2074C64.375 21.1558 64.5575 20.229 64.9227 19.4269C65.2878 18.6259 65.8091 18.0113 66.4867 17.5832C67.1654 17.154 67.9536 16.9397 68.8516 16.9402C70.0938 16.9402 71.095 17.2785 71.8555 17.955C72.6143 18.6306 73.0534 19.5798 73.1727 20.8027H70.9531C70.8984 20.0964 70.7047 19.5842 70.3719 19.266C70.0385 18.9483 69.5318 18.7894 68.8516 18.7894C68.1115 18.7894 67.5578 19.0584 67.1906 19.5964C66.8229 20.1355 66.6341 20.9709 66.6242 22.1027V22.9292C66.6242 24.1115 66.8005 24.9756 67.1531 25.5214C67.5062 26.0683 68.0625 26.3415 68.8219 26.341C69.5073 26.341 70.019 26.1821 70.357 25.8644C70.6951 25.5457 70.8885 25.0535 70.9375 24.3878L73.157 24.3871ZM84.618 22.8089C84.618 23.8871 84.4305 24.8313 84.0555 25.6418C83.681 26.4537 83.1445 27.08 82.4461 27.5207C81.7487 27.9613 80.9487 28.1816 80.0461 28.1816C79.1534 28.1816 78.3565 27.9639 77.6555 27.5285C76.956 27.092 76.4135 26.4696 76.0281 25.6613C75.6432 24.8524 75.4484 23.9214 75.4437 22.8683V22.3277C75.4437 21.2506 75.6349 20.3027 76.0172 19.4839C76.3995 18.6652 76.9398 18.0363 77.6383 17.5972C78.3362 17.1597 79.1339 16.9407 80.0313 16.9402C80.9292 16.9402 81.7271 17.1592 82.425 17.5972C83.1229 18.0363 83.6628 18.6652 84.0445 19.4839C84.4273 20.3027 84.6188 21.248 84.6188 22.3199L84.618 22.8089ZM82.3695 22.3128C82.3695 21.1654 82.1674 20.2938 81.7633 19.698C81.3586 19.1016 80.7812 18.8035 80.0313 18.8035C79.2865 18.8035 78.7117 19.0977 78.307 19.6863C77.9023 20.2748 77.6979 21.1381 77.6937 22.2761V22.8097C77.6937 23.9269 77.8958 24.7933 78.3 25.4089C78.7042 26.0256 79.2862 26.3339 80.0461 26.3339C80.7904 26.3339 81.3628 26.0371 81.7633 25.4433C82.1622 24.8496 82.3643 23.9839 82.3695 22.8464V22.3128ZM89.7445 28.0316H87.5258V17.0902H89.7445V28.0316ZM101.717 28.0316H99.4969L95.1766 20.8332V28.0316H92.957V17.0902H95.1766L99.5047 24.3042V17.0902H101.717V28.0316ZM112.705 18.9167H109.405V28.0316H107.186V18.9167H103.93V17.0902H112.705V18.9167ZM121.606 23.2902H117.345V26.2207H122.346V28.0316H115.125V17.0902H122.332V18.9167H117.345V21.5238H121.606V23.2902ZM127.023 26.2207H131.736V28.0316H124.803V17.0902H127.023V26.2207ZM140.645 23.2894H136.383V26.2207H141.384V28.0316H134.163V17.0902H141.37V18.9167H136.383V21.5238H140.645V23.2894ZM152.365 26.6488C151.965 27.1347 151.4 27.5115 150.67 27.7793C149.94 28.048 149.132 28.1824 148.243 28.1824C147.311 28.1824 146.493 27.9756 145.791 27.5621C145.088 27.1485 144.545 26.5485 144.163 25.7621C143.78 24.9756 143.584 24.0514 143.574 22.9894V22.2449C143.574 21.1527 143.756 20.2074 144.119 19.4089C144.481 18.61 145.003 17.9988 145.687 17.5753C146.37 17.1519 147.17 16.9402 148.088 16.9402C149.365 16.9402 150.364 17.2496 151.084 17.8683C151.805 18.4871 152.232 19.3876 152.365 20.5699H150.204C150.105 19.9433 149.887 19.485 149.549 19.1949C149.211 18.9042 148.746 18.7589 148.155 18.7589C147.399 18.7589 146.824 19.047 146.43 19.623C146.036 20.199 145.836 21.0558 145.831 22.1933V22.8917C145.831 24.0391 146.046 24.9058 146.474 25.4917C146.904 26.0777 147.533 26.3707 148.362 26.3707C149.195 26.3707 149.789 26.1904 150.145 25.83V23.9441H148.125V22.2832H152.365V26.6488ZM159.305 24.0269H157.537V28.0316H155.316V17.0902H159.32C160.592 17.0902 161.574 17.3785 162.264 17.955C162.955 18.5306 163.3 19.3444 163.3 20.3964C163.3 21.1433 163.141 21.7657 162.823 22.2636C162.504 22.7626 162.022 23.1597 161.377 23.455L163.707 27.9261V28.0316H161.324L159.305 24.0269ZM157.537 22.2003H159.327C159.884 22.2003 160.316 22.0563 160.622 21.7683C160.928 21.4798 161.08 21.0826 161.08 20.5769C161.08 20.0613 160.936 19.6556 160.648 19.3597C160.359 19.0644 159.916 18.9167 159.32 18.9167H157.536L157.537 22.2003ZM172.223 25.7769H168.331L167.592 28.0316H165.231L169.242 17.0902H171.298L175.33 28.0316H172.971L172.223 25.7769ZM168.931 23.9519H171.624L170.27 19.855L168.931 23.9519ZM179.711 24.1769V28.0316H177.491V17.0902H181.694C182.503 17.0902 183.215 17.2407 183.828 17.5417C184.443 17.8417 184.915 18.2688 185.245 18.823C185.576 19.3761 185.741 20.0061 185.741 20.7128C185.741 21.7847 185.38 22.6298 184.658 23.248C183.934 23.8678 182.934 24.1774 181.657 24.1769H179.711ZM179.711 22.3503H181.694C182.281 22.3503 182.729 22.2102 183.037 21.93C183.346 21.6488 183.5 21.248 183.499 20.7277C183.499 20.1912 183.344 19.7576 183.034 19.4269C182.723 19.0972 182.293 18.9272 181.746 18.9167H179.711V22.3503ZM197.188 28.0316H194.968V23.3425H190.64V28.0316H188.42V17.0902H190.64V21.5238H194.968V17.0902H197.188V28.0316Z" fill="#FABF2C"/>
<path d="M70.3445 37.6878H67.9977V44.1589H66.7008V37.6878H64.375V36.6339H70.3445V37.6878ZM72.8711 39.1769C73.0601 38.9485 73.2982 38.7658 73.5676 38.6423C73.8371 38.5188 74.131 38.4577 74.4273 38.4636C75.62 38.4636 76.2242 39.1441 76.2398 40.505V44.1589H74.9852V40.5519C74.9852 40.166 74.9018 39.8928 74.7352 39.7324C74.5669 39.5725 74.3211 39.4925 73.9977 39.4925C73.4945 39.4925 73.119 39.7162 72.8711 40.1636V44.1589H71.6148V36.2207H72.8711V39.1769ZM80.3961 44.2621C79.6003 44.2621 78.9549 44.0115 78.4602 43.5105C77.9659 43.0089 77.7188 42.3415 77.7188 41.5082V41.3527C77.7188 40.7944 77.8266 40.2957 78.0422 39.8566C78.2412 39.4358 78.5554 39.0802 78.9484 38.8308C79.3385 38.5858 79.7909 38.4583 80.2516 38.4636C81.0125 38.4636 81.6008 38.7063 82.0164 39.1917C82.431 39.6782 82.6385 40.3657 82.6391 41.2542V41.7613H78.9844C79.0229 42.2227 79.1773 42.5878 79.4477 42.8566C79.718 43.1253 80.0581 43.2597 80.468 43.2597C81.0435 43.2597 81.5122 43.0269 81.8742 42.5613L82.5516 43.2082C82.3269 43.5428 82.017 43.8114 81.6539 43.9863C81.2616 44.1742 80.8311 44.2686 80.3961 44.2621ZM80.2461 39.4707C79.9013 39.4707 79.6232 39.5915 79.4117 39.8332C79.1997 40.0738 79.0643 40.4097 79.0055 40.841H81.3977V40.7472C81.3711 40.3274 81.2594 40.0097 81.0625 39.7941C80.8656 39.5785 80.5935 39.4707 80.2461 39.4707ZM87.5375 44.1589V39.4972H86.6844V38.5667H87.5375V38.055C87.5375 37.4347 87.7099 36.9558 88.0547 36.6183C88.399 36.2808 88.8812 36.1121 89.5016 36.1121C89.7224 36.1121 89.9568 36.1431 90.2047 36.205L90.1734 37.1871C90.0151 37.1568 89.8541 37.1429 89.693 37.1457C89.0935 37.1457 88.794 37.454 88.7945 38.0707V38.5667H89.9297V39.4972H88.7937V44.1589H87.5375ZM94.6594 43.6121C94.2906 44.0454 93.7667 44.2621 93.0875 44.2621C92.4807 44.2621 92.0219 44.0847 91.7109 43.73C91.399 43.3759 91.243 42.8623 91.243 42.1894V38.5667H92.4992V42.1738C92.4992 42.8842 92.7937 43.2394 93.3828 43.2394C93.9927 43.2394 94.4042 43.0207 94.6172 42.5832V38.5667H95.8734V44.1589H94.6898L94.6594 43.6121ZM99.15 37.2074V38.5667H100.137V39.4972H99.15V42.6183C99.15 42.8324 99.1922 42.9868 99.2766 43.0816C99.3615 43.1753 99.5122 43.2225 99.7289 43.223C99.8742 43.223 100.021 43.2058 100.168 43.1714V44.1433C99.8992 44.2207 99.6211 44.2605 99.3414 44.2621C98.3768 44.2621 97.8945 43.7298 97.8945 42.6652V39.4972H96.9742V38.5667H97.8938V37.2082L99.15 37.2074ZM104.907 43.6121C104.538 44.0464 104.015 44.2634 103.336 44.2628C102.729 44.2628 102.27 44.0855 101.959 43.7308C101.646 43.3766 101.49 42.8631 101.491 42.1902V38.5675H102.747V42.1746C102.747 42.885 103.041 43.2402 103.63 43.2402C104.24 43.2402 104.652 43.0214 104.866 42.5839V38.5675H106.122V44.1597H104.938L104.907 43.6121ZM110.752 39.7152C110.583 39.6874 110.412 39.6735 110.241 39.6738C109.665 39.6738 109.277 39.8944 109.077 40.3355V44.1597H107.822V38.5675H109.021L109.052 39.1925C109.355 38.7071 109.776 38.4644 110.312 38.4644C110.492 38.4644 110.64 38.4884 110.757 38.5363L110.752 39.7152ZM114.334 44.2628C113.537 44.2628 112.892 44.0123 112.398 43.5113C111.904 43.0097 111.657 42.3423 111.656 41.5089V41.3535C111.656 40.7951 111.764 40.2964 111.979 39.8574C112.178 39.4365 112.493 39.0808 112.886 38.8316C113.276 38.5867 113.728 38.4593 114.188 38.4644C114.95 38.4644 115.539 38.7071 115.953 39.1925C116.368 39.679 116.576 40.3665 116.577 41.255V41.7621H112.922C112.96 42.2235 113.115 42.5886 113.385 42.8574C113.655 43.1261 113.996 43.2605 114.405 43.2605C114.981 43.2605 115.45 43.0277 115.812 42.5621L116.489 43.2089C116.264 43.5435 115.955 43.8121 115.591 43.9871C115.199 44.175 114.769 44.2694 114.334 44.2628ZM114.184 39.4714C113.839 39.4714 113.561 39.5923 113.349 39.8339C113.137 40.0746 113.002 40.4105 112.943 40.8417H115.335V40.748C115.308 40.3282 115.196 40.0105 115 39.7949C114.803 39.5798 114.531 39.472 114.184 39.4714ZM120.798 41.3113C120.798 40.7634 120.906 40.2699 121.123 39.8308C121.323 39.4108 121.641 39.0585 122.038 38.8175C122.431 38.5816 122.883 38.4636 123.393 38.4636C124.147 38.4636 124.759 38.7063 125.23 39.1917C125.701 39.6782 125.955 40.3227 125.992 41.1253L125.998 41.4199C125.998 41.9709 125.892 42.4636 125.68 42.898C125.482 43.3164 125.166 43.667 124.77 43.9058C124.375 44.1433 123.92 44.2621 123.403 44.2621C122.614 44.2621 121.983 43.9996 121.509 43.4746C121.035 42.9485 120.798 42.248 120.798 41.373V41.3113ZM122.054 41.4199C122.054 41.9954 122.173 42.4459 122.411 42.7714C122.648 43.097 122.979 43.2597 123.403 43.2597C123.827 43.2597 124.156 43.0941 124.392 42.7628C124.629 42.4332 124.747 41.9493 124.746 41.3113C124.746 40.7467 124.625 40.2988 124.382 39.9675C124.139 39.6363 123.809 39.4709 123.392 39.4714C122.983 39.4714 122.657 39.6342 122.416 39.9597C122.174 40.2852 122.053 40.772 122.054 41.4199ZM127.926 44.1589V39.4972H127.073V38.5667H127.926V38.055C127.926 37.4347 128.098 36.9558 128.442 36.6183C128.786 36.2808 129.269 36.1121 129.889 36.1121C130.11 36.1121 130.344 36.1431 130.592 36.205L130.561 37.1871C130.403 37.1568 130.242 37.143 130.081 37.1457C129.481 37.1457 129.181 37.454 129.181 38.0707V38.5667H130.318V39.4972H129.181V44.1589H127.926ZM135.899 38.5667L135.935 39.1511C136.328 38.6928 136.865 38.4636 137.548 38.4636C138.295 38.4636 138.807 38.7498 139.083 39.3222C139.489 38.7493 140.061 38.4631 140.798 38.4636C141.415 38.4636 141.874 38.6342 142.176 38.9753C142.478 39.316 142.632 39.8188 142.639 40.4839V44.1589H141.383V40.5207C141.383 40.1654 141.305 39.9053 141.15 39.7402C140.995 39.5746 140.738 39.4917 140.38 39.4917C140.095 39.4917 139.861 39.5686 139.68 39.7222C139.496 39.88 139.363 40.0894 139.3 40.3238L139.305 44.1597H138.049V40.4792C138.032 39.8209 137.696 39.4917 137.041 39.4917C136.538 39.4917 136.181 39.697 135.972 40.1074V44.1589H134.716V38.5667H135.899ZM144.116 41.3121C144.116 40.7636 144.225 40.2699 144.441 39.8308C144.641 39.4109 144.959 39.0587 145.357 38.8175C145.749 38.5816 146.201 38.4636 146.711 38.4636C147.466 38.4636 148.078 38.7063 148.548 39.1917C149.018 39.6782 149.273 40.3227 149.31 41.1253L149.316 41.4199C149.316 41.9709 149.21 42.4636 148.998 42.898C148.801 43.3165 148.484 43.6672 148.087 43.9058C147.693 44.1433 147.238 44.2621 146.721 44.2621C145.932 44.2621 145.301 43.9996 144.827 43.4746C144.353 42.9485 144.116 42.248 144.116 41.373V41.3121ZM145.373 41.4199C145.373 41.9954 145.491 42.4459 145.729 42.7714C145.967 43.097 146.298 43.2597 146.721 43.2597C147.145 43.2597 147.474 43.0941 147.711 42.7628C147.947 42.4332 148.065 41.9493 148.065 41.3113C148.065 40.7467 147.943 40.2988 147.701 39.9675C147.458 39.6363 147.128 39.4709 146.711 39.4714C146.301 39.4714 145.975 39.6342 145.734 39.9597C145.492 40.2852 145.372 40.772 145.373 41.4199ZM151.966 38.5667L152.002 39.2128C152.416 38.7128 152.959 38.4631 153.63 38.4636C154.795 38.4636 155.388 39.1303 155.409 40.4636V44.1589H154.153V40.5363C154.153 40.1816 154.076 39.9188 153.923 39.748C153.77 39.5772 153.519 39.4917 153.17 39.4917C152.664 39.4917 152.287 39.7209 152.039 40.1792V44.1589H150.783V38.5667H151.966ZM159.573 44.2621C158.778 44.2621 158.133 44.0115 157.639 43.5105C157.144 43.0089 156.897 42.3415 156.897 41.5082V41.3527C156.897 40.7944 157.004 40.2957 157.22 39.8566C157.419 39.4356 157.734 39.0799 158.127 38.8308C158.517 38.5861 158.969 38.4586 159.429 38.4636C160.191 38.4636 160.779 38.7063 161.195 39.1917C161.61 39.6782 161.817 40.3657 161.817 41.2542V41.7613H158.163C158.201 42.2227 158.355 42.5878 158.625 42.8566C158.896 43.1253 159.236 43.2597 159.646 43.2597C160.222 43.2597 160.69 43.0269 161.052 42.5613L161.73 43.2082C161.505 43.5427 161.196 43.8112 160.833 43.9863C160.44 44.1745 160.009 44.2689 159.573 44.2621ZM159.424 39.4707C159.08 39.4707 158.802 39.5915 158.589 39.8332C158.378 40.0738 158.242 40.4097 158.184 40.841H160.577V40.7472C160.549 40.3274 160.437 40.0097 160.241 39.7941C160.044 39.5785 159.772 39.4707 159.424 39.4707ZM165.104 42.3605L166.241 38.5667H167.579L165.356 45.0066C165.016 45.9472 164.437 46.4175 163.62 46.4175C163.415 46.414 163.212 46.3827 163.016 46.3246V45.3527L163.254 45.3683C163.571 45.3683 163.809 45.3108 163.969 45.1957C164.129 45.0795 164.256 44.8858 164.348 44.6144L164.53 44.1332L162.566 38.5667H163.92L165.104 42.3605ZM39.4375 44.2394L31.5578 47.6261V47.2871C30.0383 47.6714 28.3555 47.8933 26.7609 47.9644C19.3516 47.8933 13.4703 44.0597 13.4016 39.498V37.8035C15.8352 41.3019 20.7898 43.6457 26.7609 43.5613C28.782 43.6457 30.8484 43.33 32.5852 42.8839L33.2703 41.1902C31.2109 41.798 28.9625 42.2207 26.7617 42.2058C19.3516 42.2207 13.4703 38.3871 13.4023 33.7402V32.3855C15.8352 35.6199 20.7789 37.9636 26.7617 37.8042C29.4531 37.9644 32.0852 37.4042 34.2977 36.4488L34.6414 34.7558C32.4789 35.8832 29.6766 36.5378 26.7617 36.4488C19.3516 36.5378 13.4703 32.7042 13.4023 27.9832V26.6277C15.8352 29.9371 20.7898 32.2816 26.7617 32.3855C30.1555 32.2816 33.3734 31.3949 36.0117 30.0144L36.3539 27.9824C33.9602 29.7363 30.4648 30.8667 26.7617 31.03C19.3516 30.8667 13.4711 27.0324 13.4023 22.2253C13.4703 17.6535 19.3516 13.8191 26.7617 13.7589C31.1789 13.8199 35.2812 15.3511 37.7242 17.823L37.9625 18.2144L39.6891 18.2222L39.4375 17.823C37.0078 14.5597 32.1484 12.405 26.7617 12.405C18.5625 12.405 12.0312 16.8722 12.0312 22.2261V39.8363C12.3195 45.0628 18.7016 49.3183 26.7617 49.3183C32.0852 49.3183 36.8695 47.248 39.4375 44.2394Z" fill="white"/>
<path d="M36.2322 56.155L38.9978 44.5339L31.0471 47.9519L35.8877 27.7863H26.5518L28.9713 17.8738H58.7049L56.2846 27.7863H46.6049L44.5299 33.255L55.2471 28.8113L36.2322 56.155ZM41.0729 42.141L39.69 48.9769L51.0986 31.8878L41.7635 35.9894L45.9127 26.4191H55.2471L56.976 19.241H30.008L28.2791 26.4191H37.615L33.1197 45.5597L41.0721 42.1425L41.0729 42.141Z" fill="#FABF2C"/>
<path d="M87.5168 44.1706H88.7621V39.4878H89.9152V38.5768H88.7621V38.0393C88.7621 37.843 88.7965 37.6776 88.8652 37.5432C88.9338 37.4115 89.0424 37.3048 89.1754 37.2386C89.3134 37.1656 89.4772 37.1292 89.6668 37.1292C89.7605 37.1292 89.8465 37.1328 89.9246 37.1401C90.0079 37.1469 90.084 37.1589 90.1527 37.1761L90.184 36.2151C90.0687 36.1838 89.9511 36.1613 89.8324 36.1479C89.7109 36.1297 89.5881 36.1211 89.4652 36.1222C89.0652 36.1222 88.7189 36.1961 88.4262 36.344C88.1385 36.4834 87.9016 36.7093 87.7488 36.9901C87.5941 37.2729 87.5168 37.6227 87.5168 38.0393V38.5768H86.6582V39.487H87.5168V44.1706ZM72.8746 39.2198V36.2315H71.6348V44.1706H72.8746V40.1784C72.9116 40.1076 72.9533 40.0409 72.9996 39.9784C73.1132 39.8237 73.2543 39.7013 73.423 39.6112C73.5949 39.5222 73.7928 39.4776 74.0168 39.4776C74.2309 39.4776 74.4118 39.5138 74.5598 39.5862C74.7082 39.655 74.8202 39.7685 74.8957 39.9268C74.9754 40.0857 75.0152 40.2992 75.0152 40.5675V44.1706H76.2652V40.5784C76.2652 40.1956 76.2223 39.8716 76.1363 39.6065C76.0685 39.3628 75.9425 39.1392 75.7691 38.955C75.6096 38.7868 75.411 38.6607 75.191 38.5878C74.9509 38.5087 74.6992 38.4705 74.4465 38.4745C74.1449 38.47 73.8463 38.5349 73.5738 38.6641C73.3012 38.7933 73.062 38.9835 72.8746 39.2198ZM68.0012 44.1706V37.6784H70.3637V36.6448H64.373V37.6784H66.7145V44.1706H68.0012Z" fill="white"/>
<path fill-rule="evenodd" clip-rule="evenodd" d="M80.4061 44.2737C80.0227 44.2796 79.6417 44.2112 79.2843 44.0721C78.9652 43.9415 78.6766 43.7463 78.4366 43.4987C78.2036 43.2491 78.0225 42.9556 77.9038 42.6354C77.7782 42.2927 77.7152 41.9301 77.7179 41.5651V41.3589C77.7179 40.9214 77.7817 40.525 77.9093 40.1698C78.0363 39.8151 78.2137 39.512 78.4413 39.2604C78.6634 39.0082 78.9388 38.8086 79.2475 38.676C79.5659 38.5398 79.9091 38.4711 80.2554 38.4745C80.6554 38.4745 81.0053 38.5417 81.3053 38.676C81.6043 38.8104 81.8522 39 82.0491 39.2448C82.2491 39.4859 82.3975 39.7737 82.4944 40.1081C82.5934 40.4424 82.6431 40.8112 82.6436 41.2143V41.7464H78.9749C78.9874 41.9229 79.0181 42.0901 79.0671 42.2479C79.1358 42.4547 79.2356 42.6357 79.3663 42.7909C79.4975 42.9456 79.6564 43.068 79.8429 43.1581C80.0283 43.244 80.24 43.287 80.478 43.287C80.778 43.287 81.0452 43.2266 81.2796 43.1057C81.5139 42.9849 81.7171 42.8143 81.8889 42.594L82.5452 43.23C82.4119 43.419 82.2537 43.5893 82.0749 43.7362C81.8822 43.8951 81.6462 44.0242 81.3671 44.1237C81.0579 44.2291 80.7327 44.2799 80.4061 44.2737ZM79.0514 40.5784C79.0305 40.6687 79.0135 40.76 79.0007 40.8518H81.4132V40.7542C81.4088 40.5375 81.3635 40.3236 81.2796 40.1237C81.2053 39.933 81.0778 39.7676 80.9124 39.6471C80.7468 39.5273 80.5262 39.4674 80.2507 39.4674C80.0439 39.4674 79.8595 39.512 79.6975 39.601C79.5348 39.6909 79.3977 39.8208 79.2991 39.9784C79.1849 40.1638 79.1013 40.3664 79.0514 40.5784Z" fill="white"/>
<path d="M94.0242 44.0831C94.2618 43.9691 94.4715 43.8043 94.6383 43.6002L94.6703 44.1706H95.8484V38.5776H94.5977V42.5917C94.5105 42.7814 94.3726 42.9433 94.1992 43.0596C93.9961 43.1971 93.7172 43.2659 93.3625 43.2659C93.2434 43.2667 93.1248 43.2493 93.0109 43.2143C92.9014 43.1802 92.8019 43.1199 92.7211 43.0385C92.6322 42.9459 92.5652 42.8346 92.525 42.7127C92.4725 42.5474 92.448 42.3744 92.4523 42.201V38.5776H91.207V42.1909C91.207 42.5596 91.2518 42.8768 91.3414 43.1424C91.431 43.4081 91.5568 43.6232 91.7187 43.7877C91.8839 43.9534 92.0802 44.0758 92.3078 44.1549C92.5354 44.2341 92.7852 44.2737 93.057 44.2737C93.4325 44.2737 93.7549 44.2101 94.0242 44.0831ZM100.102 39.4877V38.5768H99.1039V37.2073H97.8586V38.5768H96.9484V39.487H97.8586V42.7018C97.8586 43.0846 97.9206 43.3914 98.0445 43.6221C98.1685 43.8534 98.3409 44.0203 98.5617 44.1229C98.782 44.2229 99.0352 44.2729 99.3211 44.2729C99.4971 44.2729 99.6523 44.2609 99.7867 44.237C99.9242 44.213 100.045 44.1854 100.148 44.1542L100.143 43.2034C99.9984 43.2328 99.8514 43.2485 99.7039 43.2502C99.5836 43.2502 99.4784 43.2346 99.3883 43.2034C99.2978 43.171 99.2224 43.1065 99.1766 43.0221C99.1281 42.9294 99.1039 42.7966 99.1039 42.6237V39.487L100.102 39.4877ZM104.267 44.0831C104.512 43.9633 104.717 43.8023 104.882 43.6002L104.913 44.1706H106.092V38.5776H104.841V42.5917C104.754 42.7812 104.616 42.943 104.443 43.0596C104.24 43.1971 103.961 43.2659 103.605 43.2659C103.482 43.2659 103.364 43.2487 103.254 43.2143C103.145 43.1801 103.045 43.1198 102.965 43.0385C102.876 42.946 102.808 42.8347 102.768 42.7127C102.716 42.5473 102.691 42.3744 102.696 42.201V38.5776H101.45V42.1909C101.45 42.5596 101.495 42.8768 101.584 43.1424C101.674 43.4081 101.8 43.6232 101.962 43.7877C102.127 43.9534 102.324 44.0758 102.552 44.1549C102.779 44.2341 103.028 44.2737 103.301 44.2737C103.676 44.2737 103.998 44.2101 104.267 44.0831ZM109.032 40.3479V44.1706H107.787V38.5776H108.976L109.011 39.2346L109.032 39.1979C109.174 38.9708 109.349 38.7935 109.559 38.6659C109.773 38.5383 110.019 38.4745 110.298 38.4745C110.374 38.4745 110.455 38.4812 110.541 38.4948C110.631 38.5088 110.698 38.5245 110.743 38.5417L110.733 39.6995C110.565 39.6724 110.396 39.6585 110.227 39.6581C110.013 39.6581 109.825 39.6893 109.663 39.7518C109.522 39.8011 109.393 39.8797 109.284 39.9824C109.175 40.0852 109.089 40.2097 109.032 40.3479Z" fill="white"/>
<path fill-rule="evenodd" clip-rule="evenodd" d="M114.3 44.2737C113.886 44.2737 113.512 44.2065 113.178 44.0721C112.859 43.9415 112.57 43.7462 112.33 43.4987C112.097 43.2491 111.916 42.9556 111.797 42.6354C111.672 42.2927 111.609 41.9301 111.611 41.5651V41.3589C111.611 40.9214 111.675 40.525 111.803 40.1698C111.93 39.8151 112.107 39.512 112.335 39.2604C112.557 39.0081 112.833 38.8085 113.142 38.676C113.46 38.5398 113.803 38.4711 114.15 38.4745C114.549 38.4745 114.899 38.5417 115.199 38.676C115.499 38.8104 115.747 39 115.943 39.2448C116.143 39.4859 116.291 39.7737 116.387 40.1081C116.487 40.4424 116.537 40.8112 116.537 41.2143V41.7463H112.868C112.881 41.9229 112.912 42.0901 112.961 42.2479C113.029 42.4547 113.129 42.6357 113.261 42.7909C113.391 42.9456 113.549 43.068 113.736 43.1581C113.922 43.244 114.134 43.287 114.372 43.287C114.649 43.2923 114.925 43.2301 115.173 43.1057C115.407 42.9849 115.611 42.8143 115.782 42.594L116.44 43.2299C116.306 43.419 116.148 43.5893 115.969 43.7362C115.757 43.9054 115.517 44.0365 115.261 44.1237C114.951 44.2291 114.626 44.2799 114.3 44.2737ZM112.945 40.5784C112.924 40.6687 112.907 40.76 112.894 40.8518H115.307V40.7542C115.303 40.5374 115.257 40.3235 115.173 40.1237C115.099 39.933 114.971 39.7676 114.806 39.6471C114.64 39.5273 114.42 39.4674 114.144 39.4674C113.937 39.4674 113.753 39.512 113.591 39.601C113.432 39.6875 113.3 39.8133 113.193 39.9784C113.078 40.1631 112.994 40.3659 112.945 40.5784ZM120.733 41.3174V41.4362C120.733 41.8393 120.792 42.2133 120.909 42.5581C121.026 42.9018 121.197 43.2034 121.421 43.4628C121.645 43.718 121.917 43.9177 122.237 44.062C122.562 44.2031 122.929 44.2737 123.339 44.2737C123.745 44.2737 124.109 44.2034 124.429 44.0628C124.75 43.9174 125.022 43.7174 125.246 43.4628C125.474 43.1978 125.648 42.8904 125.758 42.5581C125.875 42.2133 125.933 41.8393 125.933 41.4362V41.3174C125.933 40.9143 125.875 40.5404 125.758 40.1956C125.649 39.8628 125.475 39.5552 125.246 39.2909C125.021 39.0314 124.74 38.8265 124.424 38.6917C124.078 38.5424 123.704 38.4683 123.328 38.4745C122.922 38.4745 122.556 38.5469 122.233 38.6917C121.912 38.8328 121.64 39.0325 121.415 39.2909C121.189 39.5563 121.017 39.8637 120.909 40.1956C120.792 40.5404 120.733 40.9143 120.733 41.3174ZM121.979 41.4362V41.3174C121.979 41.069 122.005 40.8346 122.057 40.6143C122.103 40.4039 122.185 40.2031 122.3 40.0206C122.41 39.8482 122.55 39.7135 122.718 39.6167C122.89 39.5167 123.093 39.4667 123.328 39.4667C123.562 39.4667 123.764 39.5167 123.933 39.6167C124.105 39.7135 124.247 39.8479 124.357 40.0198C124.47 40.1917 124.553 40.3898 124.605 40.6143C124.66 40.8346 124.687 41.069 124.687 41.3174V41.4362C124.687 41.6878 124.66 41.9255 124.605 42.1495C124.553 42.3734 124.472 42.5698 124.362 42.7385C124.256 42.9041 124.11 43.0409 123.938 43.137C123.755 43.2378 123.548 43.2877 123.339 43.2815C123.101 43.2815 122.896 43.2333 122.723 43.137C122.552 43.0408 122.406 42.904 122.3 42.7385C122.184 42.5582 122.102 42.3587 122.057 42.1495C122.004 41.9155 121.978 41.6761 121.979 41.4362Z" fill="white"/>
<path d="M129.075 44.1708H127.829V39.4879H126.971V38.577H127.829V38.0395C127.829 37.6228 127.906 37.2731 128.061 36.9903C128.22 36.7038 128.446 36.4885 128.739 36.3442C129.031 36.1958 129.378 36.1218 129.778 36.1223C129.901 36.1223 130.023 36.1309 130.144 36.1481C130.265 36.1616 130.383 36.184 130.496 36.2153L130.465 37.1762C130.39 37.1586 130.314 37.1466 130.237 37.1403C130.151 37.1334 130.065 37.13 129.979 37.1301C129.789 37.1301 129.625 37.1663 129.488 37.2387C129.356 37.3058 129.247 37.4123 129.178 37.5434C129.105 37.6984 129.07 37.8683 129.075 38.0395V38.577H130.227V39.4872H129.075V44.1708ZM135.839 40.1504V44.1708H134.593V38.5778H135.767L135.807 39.2083C135.989 38.9791 136.212 38.802 136.475 38.677C136.754 38.5416 137.077 38.4741 137.442 38.4747C137.697 38.4747 137.93 38.5127 138.139 38.5887C138.353 38.6606 138.537 38.776 138.693 38.9348C138.807 39.0494 138.902 39.1882 138.978 39.3512C139.011 39.3043 139.045 39.2585 139.08 39.2137C139.267 38.983 139.496 38.802 139.768 38.6708C140.06 38.5346 140.381 38.4675 140.704 38.4747C140.989 38.4747 141.244 38.5142 141.468 38.5934C141.696 38.6695 141.889 38.79 142.047 38.9551C142.206 39.1202 142.326 39.3356 142.409 39.6012C142.492 39.8632 142.533 40.1804 142.533 40.5528V44.1708H141.282V40.5473C141.282 40.2645 141.241 40.0458 141.158 39.8911C141.089 39.745 140.967 39.6306 140.817 39.5708C140.668 39.5083 140.491 39.477 140.285 39.477C140.092 39.477 139.921 39.5135 139.773 39.5864C139.629 39.6544 139.503 39.7553 139.406 39.8809C139.306 40.0063 139.23 40.1487 139.181 40.3012C139.182 40.3481 139.183 40.3958 139.183 40.4442V44.1708H137.938V40.5536C137.938 40.2812 137.896 40.0676 137.814 39.9129C137.742 39.7646 137.619 39.647 137.468 39.5817C137.3 39.5087 137.118 39.4735 136.935 39.4786C136.7 39.4786 136.501 39.5234 136.336 39.6129C136.175 39.7016 136.039 39.8275 135.937 39.9801C135.901 40.0343 135.868 40.0911 135.839 40.1504Z" fill="white"/>
<path fill-rule="evenodd" clip-rule="evenodd" d="M143.99 41.4362V41.3174C143.99 40.9143 144.049 40.5404 144.166 40.1956C144.283 39.8482 144.452 39.5466 144.672 39.2909C144.896 39.0321 145.175 38.8272 145.489 38.6917C145.835 38.5424 146.208 38.4683 146.585 38.4745C146.995 38.4745 147.36 38.5469 147.681 38.6917C148.004 38.8328 148.278 39.0325 148.503 39.2909C148.727 39.5461 148.897 39.8477 149.015 40.1956C149.132 40.5404 149.19 40.9143 149.19 41.3174V41.4362C149.19 41.8393 149.132 42.2133 149.015 42.5581C148.897 42.9018 148.726 43.2034 148.503 43.4628C148.277 43.7197 147.999 43.9242 147.686 44.062C147.365 44.2031 147.002 44.2737 146.595 44.2737C146.218 44.2801 145.843 44.2083 145.494 44.0628C145.182 43.9247 144.903 43.7199 144.678 43.4628C144.449 43.1978 144.276 42.8904 144.166 42.5581C144.046 42.1964 143.986 41.8173 143.99 41.4362ZM145.236 41.3174V41.4362C145.236 41.6878 145.262 41.9255 145.313 42.1495C145.365 42.3734 145.446 42.5698 145.556 42.7385C145.666 42.9078 145.807 43.0406 145.98 43.137C146.152 43.2333 146.357 43.2815 146.595 43.2815C146.826 43.2815 147.026 43.2333 147.195 43.137C147.367 43.0408 147.512 42.904 147.619 42.7385C147.734 42.5582 147.816 42.3587 147.862 42.1495C147.917 41.9255 147.944 41.6878 147.944 41.4362V41.3174C147.944 41.069 147.917 40.8346 147.862 40.6143C147.815 40.4031 147.731 40.202 147.614 40.0206C147.509 39.8522 147.363 39.7132 147.19 39.6167C147.005 39.513 146.796 39.4612 146.585 39.4667C146.351 39.4667 146.147 39.5167 145.975 39.6167C145.804 39.7148 145.661 39.8532 145.556 40.0198C145.446 40.1917 145.365 40.3898 145.313 40.6143C145.261 40.845 145.235 41.0809 145.236 41.3174Z" fill="white"/>
<path d="M151.883 40.1965V44.1707H150.637V38.5777H151.81L151.851 39.2519L151.877 39.2191C152.067 38.9857 152.308 38.7982 152.58 38.6707C152.865 38.5372 153.176 38.4701 153.49 38.4746C153.759 38.4746 154.002 38.5126 154.219 38.5886C154.44 38.6605 154.627 38.7793 154.782 38.9449C154.941 39.1105 155.062 39.3259 155.145 39.591C155.227 39.853 155.268 40.1751 155.268 40.5574V44.1707H154.017V40.5535C154.017 40.2847 153.978 40.0728 153.898 39.9175C153.832 39.768 153.712 39.6483 153.563 39.5816C153.391 39.5071 153.206 39.4719 153.02 39.4785C152.806 39.4785 152.615 39.5233 152.446 39.6129C152.278 39.7021 152.131 39.8275 152.017 39.98C151.967 40.0478 151.922 40.1199 151.883 40.1965Z" fill="white"/>
<path fill-rule="evenodd" clip-rule="evenodd" d="M159.418 44.2737C159.035 44.2795 158.654 44.2111 158.297 44.0721C157.978 43.9415 157.689 43.7463 157.449 43.4987C157.216 43.2491 157.035 42.9556 156.916 42.6354C156.791 42.2927 156.728 41.9301 156.731 41.5651V41.3589C156.731 40.9214 156.794 40.525 156.922 40.1698C157.049 39.8151 157.226 39.512 157.454 39.2604C157.676 39.0082 157.951 38.8086 158.26 38.676C158.579 38.5398 158.922 38.4711 159.268 38.4745C159.668 38.4745 160.018 38.5417 160.318 38.676C160.618 38.8104 160.865 39 161.062 39.2448C161.262 39.4859 161.41 39.7737 161.506 40.1081C161.606 40.4424 161.656 40.8112 161.656 41.2143V41.7464H157.988C158 41.9229 158.031 42.0901 158.08 42.2479C158.149 42.4547 158.248 42.6357 158.379 42.7909C158.51 42.9456 158.669 43.068 158.855 43.1581C159.041 43.244 159.253 43.287 159.491 43.287C159.79 43.287 160.057 43.2266 160.291 43.1057C160.526 42.9849 160.729 42.8143 160.902 42.594L161.558 43.23C161.425 43.419 161.266 43.5893 161.088 43.7362C160.876 43.9053 160.636 44.0364 160.38 44.1237C160.07 44.2292 159.745 44.28 159.418 44.2737ZM158.064 40.5784C158.043 40.6687 158.026 40.76 158.013 40.8518H160.426V40.7542C160.421 40.5374 160.376 40.3235 160.291 40.1237C160.217 39.9331 160.09 39.7677 159.925 39.6471C159.759 39.5273 159.539 39.4674 159.263 39.4674C159.056 39.4674 158.872 39.512 158.71 39.601C158.551 39.6875 158.419 39.8133 158.312 39.9784C158.198 40.1638 158.114 40.3664 158.064 40.5784Z" fill="white"/>
<path d="M164.37 44.1565L162.39 38.5784H163.733L164.946 42.3987L166.111 38.5784H167.444L165.201 45.0237C165.142 45.1768 165.075 45.3268 165 45.4729C164.913 45.641 164.804 45.7961 164.674 45.9338C164.543 46.0818 164.379 46.2005 164.183 46.2901C163.987 46.3828 163.749 46.4292 163.47 46.4292C163.36 46.4292 163.253 46.4187 163.149 46.3979C163.054 46.3817 162.959 46.3629 162.865 46.3417L162.86 45.3901C162.942 45.3975 163.025 45.4027 163.108 45.4057C163.283 45.4107 163.458 45.3846 163.625 45.3284C163.758 45.2845 163.875 45.2018 163.961 45.0909C164.05 44.9805 164.126 44.832 164.188 44.6456L164.37 44.1565Z" fill="white"/>
</g>
</g>
</g>
<defs>
<clipPath id="clip0_15_6327">
<rect width="210" height="67.75" fill="white" transform="translate(0 0.405029)"/>
</clipPath>
<clipPath id="clip1_15_6327">
<rect width="185.938" height="43.75" fill="white" transform="translate(12.0312 12.405)"/>
</clipPath>
</defs>
</svg>
