<svg width="210" height="49" viewBox="0 0 210 49" fill="none" xmlns="http://www.w3.org/2000/svg">
<g clip-path="url(#clip0_15_6367)">
<path fill-rule="evenodd" clip-rule="evenodd" d="M89.8037 29.4129C84.4761 29.4129 80.6012 25.7512 80.6012 20.7164C80.6012 15.6817 84.4761 12.02 89.8732 12.02C92.7795 12.02 95.2703 13.0662 96.8621 15.0278L97.0003 15.224L94.1635 17.8394L93.9558 17.6433C92.9178 16.4009 91.5337 15.8124 90.0115 15.8124C87.0364 15.8124 84.9603 17.8394 84.9603 20.7818C84.9603 23.7242 87.0364 25.7512 90.0115 25.7512C91.6032 25.7512 92.9178 25.1627 93.9558 23.9204L94.1635 23.7242L97.0003 26.3397L96.8621 26.5359C95.2703 28.4975 92.7795 29.5436 89.8037 29.5436V29.4129ZM48.9783 29.1513H40.1905V12.2816H48.5631C52.6456 12.2816 55.0675 13.9816 55.0675 16.7933C55.0675 18.2971 54.3755 19.5395 53.1992 20.3241C54.9291 21.0434 55.8979 22.5473 55.8979 24.4435C55.8979 27.4513 53.476 29.1513 49.0475 29.1513H48.9783ZM44.4806 25.8166H48.7015C51.1926 25.8166 51.4694 24.8358 51.4694 24.0512C51.4694 22.8742 50.5698 22.2857 48.7015 22.2857H44.4806V25.8166ZM44.4806 19.0164H48.0096C49.7395 19.0164 50.639 18.4279 50.639 17.3163C50.639 16.924 50.639 15.6817 48.0096 15.6817H44.4806V19.0164ZM62.6791 29.1513H58.3198V12.2816H62.6791V29.1513ZM70.2906 29.1513H74.5807V15.8778H79.9088V12.2816H64.9626V15.8778H70.2906V29.1513ZM97.6229 20.7164C97.6229 25.7512 101.567 29.4129 106.964 29.4129C112.361 29.4129 116.306 25.7512 116.306 20.7164C116.306 15.6817 112.361 12.02 106.964 12.02C101.567 12.02 97.6229 15.6817 97.6229 20.7164ZM102.051 20.7164C102.051 17.8394 104.127 15.7471 106.964 15.7471C109.801 15.7471 111.877 17.8394 111.877 20.7164C111.877 23.5935 109.801 25.6858 106.964 25.6858C104.127 25.6858 102.051 23.5935 102.051 20.7164ZM122.74 29.1513H118.381V12.2816H122.74V29.1513ZM137.618 29.1513H141.147V12.2816H136.857V21.6972L129.038 12.2816H125.508V29.1513H129.799V19.7356L137.618 29.1513ZM147.928 29.1513H143.569V12.2816H147.928V29.1513ZM150.211 27.4513C151.803 28.6282 154.501 29.4129 157.131 29.4129V29.4783C162.459 29.4783 164.396 26.6012 164.396 24.1819C164.396 20.5523 160.997 19.7496 158.242 19.0989L158.169 19.0818C156.369 18.6895 154.778 18.2971 154.778 17.2509C154.778 16.2048 155.816 15.6163 157.685 15.6163C159.137 15.6163 160.66 16.074 162.113 16.8586L162.39 16.9894L163.774 13.6547L163.566 13.5239C162.044 12.5431 159.899 12.02 157.685 12.02C153.256 12.02 150.419 14.1124 150.488 17.3163C150.488 21.0113 153.889 21.8143 156.644 22.465L156.715 22.4819C158.515 22.8742 160.106 23.2665 160.106 24.3127C160.106 25.6204 158.307 25.8166 157.2 25.8166C155.331 25.8166 153.256 25.2281 151.872 24.1819L151.595 23.9858L150.073 27.3205L150.211 27.4513ZM175.052 29.1513H170.762V15.8778H165.434V12.2816H180.38V15.8778H175.052V29.1513ZM182.318 15.4854C182.318 15.8123 182.94 16.0738 182.94 16.0738C183.286 16.0738 183.563 15.8123 183.563 15.4854C183.563 15.1584 183.286 14.8969 182.94 14.8969C182.595 14.8969 182.318 15.1584 182.318 15.4854ZM186.4 16.074C185.155 16.074 184.325 15.2894 184.325 14.1778C184.325 13.0662 185.224 12.2816 186.4 12.2816C187.092 12.2816 187.646 12.5431 187.992 12.9354L187.3 13.5893C187.3 13.5893 186.746 13.1316 186.47 13.1316C185.847 13.1316 185.362 13.5893 185.362 14.1778C185.362 14.7663 185.847 15.224 186.47 15.224C186.816 15.224 187.092 15.0932 187.3 14.8317L187.992 15.3548C187.646 15.8125 187.092 16.074 186.4 16.074ZM188.337 14.1778C188.337 15.2894 189.237 16.074 190.483 16.074C191.729 16.074 192.628 15.2894 192.628 14.1778C192.628 13.0662 191.729 12.2816 190.483 12.2816C189.237 12.2816 188.337 13.0662 188.337 14.1778ZM189.445 14.1778C189.445 13.5893 189.86 13.1316 190.483 13.1316C191.175 13.1316 191.59 13.5893 191.59 14.1778C191.59 14.7663 191.105 15.224 190.483 15.224C189.86 15.224 189.445 14.7663 189.445 14.1778ZM193.32 15.8779V12.4124V12.3469H194.151L195.465 14.4393L196.78 12.3469H197.61V16.0086H196.711V14.1124L195.742 15.6162H195.257L194.289 14.1777V16.0086H193.32V15.8779ZM39.707 34.2005L39.7074 34.1847C39.7425 35.3943 40.7671 36.2783 42.0591 36.2783C42.751 36.2783 43.3046 36.0821 43.7197 35.6898L43.443 35.4282C43.097 35.8206 42.6127 35.9513 42.1283 35.9513C41.0903 35.9513 40.26 35.2321 40.26 34.1859C40.26 33.1397 41.0211 32.4205 42.1283 32.4205C42.6127 32.4205 43.097 32.6166 43.443 32.9435L43.7197 32.682C43.3046 32.2897 42.6819 32.0935 42.0591 32.0935C40.7 32.0935 39.7413 32.9764 39.7074 34.1847C39.7068 34.1634 39.7064 34.142 39.7064 34.1205V34.2513L39.7065 34.2373L39.7067 34.216L39.707 34.2005ZM46.6951 34.9705L47.7331 36.3437V36.2783H48.2174L47.1103 34.8398C47.8023 34.6436 48.1482 34.1859 48.1482 33.532C48.1482 32.6166 47.4562 32.0935 46.3491 32.0935H44.6884V36.2783H45.1728V34.9705H46.3491H46.6951ZM46.3491 32.5512C47.2486 32.5512 47.7331 32.9435 47.7331 33.5974C47.7331 34.2513 47.2486 34.6436 46.3491 34.6436H45.1728V32.5512H46.3491ZM50.7776 34.9051V36.3437H50.2932V34.9051L48.4941 32.1589H48.9785L50.5008 34.5128L52.0231 32.1589H52.5074L50.7084 34.9051H50.7776ZM53.7528 35.0359H54.9291C56.0362 35.0359 56.7281 34.5128 56.7281 33.5974C56.7281 32.682 56.0362 32.1589 54.9291 32.1589H53.2684V36.3437H53.7528V35.0359ZM54.8599 32.5512C55.7595 32.5512 56.2438 32.9435 56.2438 33.5974C56.2438 34.2513 55.7595 34.6436 54.8599 34.6436H53.6836V32.5512H54.8599ZM58.3892 32.5512H56.8669V32.1589H60.465V32.5512H58.8735V36.3437H58.3892V32.5512ZM63.1635 32.0935C61.7795 32.0935 60.8108 33.0089 60.8108 34.2513C60.8108 35.4936 61.7795 36.409 63.1635 36.409C64.5474 36.409 65.5161 35.4936 65.5161 34.2513C65.5161 33.0089 64.5474 32.0935 63.1635 32.0935ZM63.1635 32.4858C64.2706 32.4858 65.0317 33.2705 65.0317 34.2513C65.0317 35.2975 64.2014 36.0167 63.1635 36.0167C62.1255 36.0167 61.2952 35.2975 61.2952 34.2513C61.2952 33.2051 62.0563 32.4858 63.1635 32.4858ZM66.208 34.2513C66.208 34.229 66.2083 34.2068 66.2089 34.1847C66.244 35.3943 67.2687 36.2783 68.5606 36.2783C69.2526 36.2783 69.8061 36.0821 70.2213 35.6898L69.9445 35.4282C69.5986 35.8206 69.1142 35.9513 68.6298 35.9513C67.5919 35.9513 66.7615 35.2321 66.7615 34.1859C66.7615 33.1397 67.5227 32.4205 68.6298 32.4205C69.1142 32.4205 69.5986 32.6166 69.9445 32.9435L70.2213 32.682C69.8061 32.2897 69.1834 32.0935 68.5606 32.0935C67.2015 32.0935 66.2429 32.9764 66.2089 34.1847C66.2083 34.1634 66.208 34.142 66.208 34.1205V34.2513ZM71.1211 32.1589V34.5782H71.2595C71.2595 35.7552 71.9515 36.409 73.0586 36.409C74.1657 36.409 74.8577 35.7552 74.8577 34.5782V32.1589H74.3733V34.5782C74.3733 35.559 73.889 36.0167 72.9894 36.0167C72.0899 36.0167 71.6055 35.559 71.6055 34.5782V32.1589H71.1211ZM79.286 36.3437L78.2481 34.9705H77.9021H76.7258V36.2783H76.2414V32.0935H77.9021C79.0093 32.0935 79.7012 32.6166 79.7012 33.532C79.7012 34.1859 79.3552 34.6436 78.6633 34.8398L79.7704 36.2783H79.286V36.3437ZM79.286 33.5974C79.286 32.9435 78.8017 32.5512 77.9021 32.5512H76.7258V34.6436H77.9021C78.8017 34.6436 79.286 34.2513 79.286 33.5974ZM82.8843 34.9705L83.9223 36.3437V36.2783H84.4066L83.2998 34.8398C83.9918 34.6436 84.3371 34.1859 84.3371 33.532C84.3371 32.6166 83.6458 32.0935 82.5383 32.0935H80.8778V36.2783H81.362V34.9705H82.5383H82.8843ZM82.5383 32.5512C83.4381 32.5512 83.9223 32.9435 83.9223 33.5974C83.9223 34.2513 83.4381 34.6436 82.5383 34.6436H81.362V32.5512H82.5383ZM88.6274 35.9513V36.0167H85.9977V34.4474H88.2814V34.0551H85.9977V32.5512H88.558V32.1589H85.5134V36.3437H88.6274V36.0167H88.6962L88.6274 35.9513ZM93.4708 36.3437V32.1589H92.9866V35.559L90.1497 32.1589H89.7342V36.3437H90.2185V32.9435L93.056 36.3437H93.4708ZM94.5783 34.2513C94.5783 34.229 94.579 34.2068 94.5797 34.1847C94.6144 35.3943 95.6395 36.2783 96.9309 36.2783C97.6229 36.2783 98.1766 36.0821 98.5921 35.6898L98.3149 35.4282C97.9689 35.8206 97.4846 35.9513 97.0003 35.9513C95.9623 35.9513 95.1321 35.2321 95.1321 34.1859C95.1321 33.1397 95.8935 32.4205 97.0003 32.4205C97.4846 32.4205 97.9689 32.6166 98.3149 32.9435L98.5921 32.682C98.1766 32.2897 97.5541 32.0935 96.9309 32.0935C95.5721 32.0935 94.613 32.9764 94.5797 34.1847C94.579 34.1721 94.579 34.1593 94.579 34.1466L94.5783 34.1205V34.2513ZM101.013 36.3437V34.9051H100.944L102.743 32.1589H102.259L100.737 34.5128L99.2146 32.1589H98.7297L100.529 34.9051V36.3437H101.013ZM109.386 32.1589V36.3437H108.971L106.134 32.9435V36.3437H105.65V32.1589H106.065L108.901 35.559V32.1589H109.386ZM114.023 36.0167V35.9513L114.091 36.0167H114.023ZM111.393 36.0167H114.023V36.3437H110.909V32.1589H113.953V32.5512H111.393V34.0551H113.677V34.4474H111.393V36.0167ZM121.219 32.1589L119.696 36.3437H119.212L117.898 32.7474L116.582 36.3437H116.098L114.576 32.1589H115.06L116.375 35.7552L117.69 32.1589H118.105L119.42 35.8206L120.734 32.1589H121.219ZM121.842 35.4936L121.634 35.8206V35.8859C121.98 36.2129 122.603 36.409 123.295 36.409C124.401 36.409 124.955 35.8206 124.955 35.2321C124.955 34.4341 124.176 34.262 123.444 34.1005C122.797 33.9576 122.188 33.8229 122.188 33.2705C122.188 32.8128 122.533 32.4858 123.364 32.4858C123.779 32.4858 124.194 32.5512 124.609 32.8128L124.747 32.4858C124.401 32.2243 123.848 32.0935 123.364 32.0935C122.188 32.0935 121.703 32.682 121.703 33.2705C121.703 34.1114 122.498 34.2951 123.236 34.4657C123.875 34.6134 124.471 34.7512 124.471 35.2975C124.471 35.6898 124.125 36.0167 123.295 36.0167C122.741 36.0167 121.842 35.4936 121.842 35.4936ZM131.39 36.409L130.767 35.8206C130.421 36.2129 129.867 36.409 129.314 36.409C128.415 36.409 127.792 35.9513 127.792 35.3629C127.792 34.8398 128.069 34.5128 128.899 34.0551C128.484 33.6628 128.345 33.4013 128.345 33.0743C128.345 32.5512 128.761 32.1589 129.453 32.1589C130.075 32.1589 130.491 32.4858 130.491 33.0089C130.491 33.4013 130.213 33.7282 129.521 34.1205L130.767 35.2975C130.767 35.2975 130.975 34.7744 131.044 34.5128L131.39 34.6436C131.321 35.0359 131.183 35.3629 130.975 35.6244L131.597 36.2129L131.39 36.409ZM130.491 35.559L129.176 34.2513C128.484 34.6436 128.276 34.9051 128.276 35.2975C128.276 35.7552 128.691 36.0821 129.383 36.0821C129.867 36.0821 130.283 35.9513 130.559 35.6244L130.491 35.559ZM128.761 33.0089C128.761 33.0089 128.83 33.4013 129.245 33.7936C129.867 33.4666 130.075 33.2051 130.075 32.9435C130.075 32.682 129.867 32.4205 129.453 32.4205C129.037 32.4205 128.761 32.682 128.761 33.0089ZM133.881 32.5512H135.403V36.3437H135.888V32.5512H137.479V32.1589H133.881V32.5512ZM141.424 35.9513V36.0167H138.794V34.4474H141.078V34.0551H138.794V32.5512H141.354V32.1589H138.31V36.3437H141.424V36.0167H141.493L141.424 35.9513ZM142.116 34.1847C142.116 34.2068 142.116 34.229 142.116 34.2513V34.1205C142.116 34.142 142.116 34.1634 142.116 34.1847ZM142.116 34.1847C142.151 32.9764 143.109 32.0935 144.468 32.0935C145.091 32.0935 145.713 32.2897 146.129 32.682L145.852 32.9435C145.506 32.6166 145.021 32.4205 144.537 32.4205C143.43 32.4205 142.669 33.1397 142.669 34.1859C142.669 35.2321 143.499 35.9513 144.537 35.9513C145.021 35.9513 145.506 35.8206 145.852 35.4282L146.129 35.6898C145.713 36.0821 145.16 36.2783 144.468 36.2783C143.176 36.2783 142.152 35.3943 142.116 34.1847ZM150.834 36.3437H150.35V34.3821H147.582V36.3437H147.097V32.1589H147.582V34.0551H150.35V32.1589H150.834V36.3437ZM155.609 36.3437H156.023V32.1589H155.539V35.559L152.702 32.1589H152.288V36.3437H152.772V32.9435L155.609 36.3437ZM157.131 34.2513C157.131 33.0089 158.099 32.0935 159.483 32.0935C160.867 32.0935 161.836 33.0089 161.836 34.2513C161.836 35.4936 160.867 36.409 159.483 36.409C158.099 36.409 157.131 35.4936 157.131 34.2513ZM161.352 34.2513C161.352 33.2705 160.59 32.4858 159.483 32.4858C158.377 32.4858 157.615 33.2051 157.615 34.2513C157.615 35.2975 158.445 36.0167 159.483 36.0167C160.521 36.0167 161.352 35.2975 161.352 34.2513ZM163.358 32.1589H162.874V36.3437H165.85V35.9513H163.358V32.1589ZM166.196 34.2513C166.196 33.0089 167.164 32.0935 168.548 32.0935C169.932 32.0935 170.901 33.0089 170.901 34.2513C170.901 35.4936 169.932 36.409 168.548 36.409C167.164 36.409 166.196 35.4936 166.196 34.2513ZM170.417 34.2513C170.417 33.2705 169.656 32.4858 168.548 32.4858C167.442 32.4858 166.68 33.2051 166.68 34.2513C166.68 35.2975 167.51 36.0167 168.548 36.0167C169.586 36.0167 170.417 35.2975 170.417 34.2513ZM175.537 34.2513H175.052V35.6244C174.706 35.8859 174.291 35.9513 173.876 35.9513C172.838 35.9513 172.008 35.2321 172.008 34.1859C172.008 33.1397 172.838 32.4205 173.945 32.4205C174.43 32.4205 174.914 32.6166 175.26 32.9435L175.537 32.682C175.122 32.2897 174.568 32.0935 173.876 32.0935C172.493 32.0935 171.523 33.0089 171.523 34.2513C171.523 35.4936 172.493 36.409 173.876 36.409C174.499 36.409 175.122 36.2129 175.537 35.8859V34.2513ZM178.374 34.9051V36.3437H177.889V34.9051L176.09 32.1589H176.575L178.097 34.5128L179.619 32.1589H180.103L178.305 34.9051H178.374ZM12.0283 31.1129L17.9791 36.54H37.6998V12.2816H12.0283V31.1129ZM31.2646 22.7434C31.5414 20.978 30.0883 20.0626 28.1508 19.4087H28.22L28.8428 16.9894L27.3205 16.5971L26.6978 18.951C26.5247 18.9183 26.369 18.8856 26.2133 18.8529C26.0577 18.8202 25.902 18.7875 25.729 18.7549H25.4522L26.0749 16.4009L24.5527 16.0086L23.9299 18.4279H23.7223C23.4456 18.3625 22.9612 18.2318 22.9612 18.2318L20.8162 17.7087L20.4009 19.2779L21.5081 19.5395C22.1308 19.6703 22.2 20.3895 22.2 20.3895L21.5081 23.1358L20.4701 26.9282C20.4009 27.059 20.1933 27.3859 19.7782 27.2551L18.6711 26.9936L17.9099 28.6282L19.9166 29.0859C20.0649 29.0859 20.1933 29.1235 20.3126 29.1583C20.4159 29.1885 20.5122 29.2167 20.6086 29.2167C20.747 29.2821 21.0237 29.3475 21.0237 29.3475L20.4009 31.7668L21.9232 32.1591L22.546 29.7398C22.9612 29.8706 23.3764 30.0014 23.7915 30.0667L23.1688 32.4207L24.6911 32.813L25.3138 30.3937C27.9432 30.8514 29.8807 30.6552 30.7111 28.4321C31.403 26.6012 30.7111 25.5551 29.3272 24.9012C30.2959 24.6396 31.0571 24.0512 31.2646 22.7434ZM27.7357 27.3859C27.3205 29.0206 24.5527 28.3667 23.3072 28.0398H23.238C23.1688 27.9744 22.9612 27.9744 22.9612 27.9744L23.7915 24.7704C23.9299 24.8358 24.0683 24.8358 24.2067 24.8358C24.2861 24.8556 24.3705 24.8761 24.4585 24.8974C25.8282 25.2303 28.1258 25.7886 27.7357 27.3859ZM24.5084 23.4036L24.4835 23.3973V23.3319H24.2067L24.9679 20.4549C25.1063 20.5203 25.1755 20.5203 25.3138 20.5203C26.4209 20.7164 28.6352 21.1742 28.22 22.7434C27.8082 24.2354 25.5575 23.668 24.5084 23.4036Z" fill="#FAFAFA"/>
</g>
<defs>
<clipPath id="clip0_15_6367">
<rect width="185.943" height="24.52" fill="white" transform="translate(12.0283 12.02)"/>
</clipPath>
</defs>
</svg>
