<svg width="210" height="62" viewBox="0 0 210 62" fill="none" xmlns="http://www.w3.org/2000/svg">
<g clip-path="url(#clip0_15_6347)">
<mask id="mask0_15_6347" style="mask-type:luminance" maskUnits="userSpaceOnUse" x="12" y="12" width="186" height="38">
<path d="M197.975 12.6851H12.0254V49.8751H197.975V12.6851Z" fill="white"/>
</mask>
<g mask="url(#mask0_15_6347)">
<path d="M73.6875 26.3496H67.4587V42.2202H62.9649V26.3496H56.7646V22.0549H73.6875V26.3496Z" fill="white"/>
<path d="M75.283 33.46H80.9431C80.9053 32.8154 80.6489 32.2561 80.1747 31.7821C79.7198 31.308 79.0278 31.0709 78.0988 31.0709C77.2644 31.0709 76.6009 31.3175 76.1078 31.8104C75.6148 32.3034 75.3399 32.8533 75.283 33.46ZM81.2559 37.1291L84.868 38.153C84.5074 39.4613 83.7589 40.5421 82.6213 41.3953C81.483 42.2297 80.0612 42.6468 78.3547 42.6468C76.3069 42.6468 74.5625 41.9642 73.1215 40.599C71.6994 39.2337 70.9883 37.404 70.9883 35.1096C70.9883 32.9102 71.6804 31.1184 73.0645 29.7342C74.4676 28.35 76.1268 27.658 78.0419 27.658C80.2412 27.658 81.9672 28.3027 83.2183 29.592C84.4888 30.8623 85.1237 32.6352 85.1237 34.9107C85.1237 35.6311 85.0951 36.0767 85.0387 36.2474H75.1977C75.2356 37.0247 75.5674 37.679 76.1932 38.2099C76.8188 38.7218 77.5583 38.9778 78.4116 38.9778C79.8719 38.9778 80.8196 38.3616 81.2559 37.1291Z" fill="white"/>
<path d="M92.9907 31.6398C92.0617 31.6398 91.284 31.9526 90.6584 32.5784C90.0514 33.2041 89.7479 34.0669 89.7479 35.1666C89.7479 36.2474 90.0614 37.1006 90.687 37.7264C91.3311 38.352 92.1181 38.6649 93.0472 38.6649C93.8249 38.6649 94.4597 38.4658 94.9532 38.0676C95.4652 37.6505 95.8066 37.148 95.9766 36.5602L99.7879 37.7264C99.4465 39.0726 98.6788 40.2292 97.4841 41.1962C96.3086 42.1633 94.8297 42.6468 93.0472 42.6468C90.924 42.6468 89.1223 41.9452 87.6433 40.5421C86.1836 39.1199 85.4531 37.3282 85.4531 35.1666C85.4531 32.986 86.1644 31.1943 87.5869 29.7911C89.0273 28.369 90.8005 27.658 92.9051 27.658C94.7446 27.658 96.2522 28.132 97.4276 29.0801C98.6031 30.0281 99.3615 31.1943 99.7029 32.5784L95.8344 33.7445C95.6638 33.1377 95.3417 32.6352 94.8675 32.2371C94.394 31.8388 93.7677 31.6398 92.9907 31.6398Z" fill="white"/>
<path d="M105.321 33.9153V42.2203H100.998V21.6284H105.321V28.9948C106.174 28.1416 107.378 27.715 108.933 27.715C110.697 27.715 112.024 28.2459 112.915 29.3078C113.825 30.3505 114.281 31.6968 114.281 33.3465V42.2203H109.957V34.0859C109.957 33.3465 109.758 32.7587 109.36 32.3225C108.981 31.8674 108.411 31.64 107.653 31.64C106.99 31.64 106.44 31.8579 106.003 32.2941C105.586 32.7112 105.359 33.2516 105.321 33.9153Z" fill="white"/>
<path d="M122.976 38.6649C123.866 38.6649 124.616 38.3616 125.223 37.7548C125.847 37.148 126.162 36.2758 126.162 35.1381C126.162 34.0005 125.847 33.1377 125.223 32.55C124.616 31.9432 123.866 31.6398 122.976 31.6398C122.103 31.6398 121.355 31.9432 120.729 32.55C120.104 33.1567 119.789 34.0194 119.789 35.1381C119.789 36.2568 120.104 37.1291 120.729 37.7548C121.355 38.3616 122.103 38.6649 122.976 38.6649ZM122.976 27.658C125.118 27.658 126.9 28.3595 128.323 29.7626C129.764 31.1658 130.484 32.9575 130.484 35.1381C130.484 37.3187 129.764 39.1199 128.323 40.5421C126.9 41.9452 125.118 42.6468 122.976 42.6468C120.852 42.6468 119.069 41.9357 117.628 40.5137C116.187 39.0915 115.467 37.2997 115.467 35.1381C115.467 32.9765 116.187 31.1943 117.628 29.7911C119.069 28.369 120.852 27.658 122.976 27.658Z" fill="white"/>
<path d="M136.167 47.6241H131.845V28.0846H136.025V29.5352C136.347 29.0422 136.879 28.625 137.618 28.2837C138.376 27.9235 139.23 27.7434 140.177 27.7434C142.188 27.7434 143.781 28.4354 144.956 29.8196C146.151 31.1847 146.748 32.9481 146.748 35.1097C146.748 37.2714 146.112 39.0537 144.842 40.4568C143.591 41.841 141.98 42.533 140.007 42.533C138.224 42.533 136.944 42.059 136.167 41.111V47.6241ZM141.571 37.7548C142.197 37.1291 142.51 36.2569 142.51 35.1382C142.51 34.0194 142.197 33.1567 141.571 32.55C140.964 31.9432 140.207 31.6399 139.296 31.6399C138.405 31.6399 137.646 31.9432 137.021 32.55C136.414 33.1567 136.11 34.0194 136.11 35.1382C136.11 36.2569 136.414 37.1291 137.021 37.7548C137.646 38.3616 138.405 38.665 139.296 38.665C140.207 38.665 140.964 38.3616 141.571 37.7548Z" fill="white"/>
<path d="M151.386 33.46H157.046C157.009 32.8154 156.752 32.2561 156.277 31.7821C155.823 31.308 155.131 31.0709 154.202 31.0709C153.368 31.0709 152.703 31.3175 152.211 31.8104C151.718 32.3034 151.443 32.8533 151.386 33.46ZM157.359 37.1291L160.971 38.153C160.611 39.4613 159.862 40.5421 158.724 41.3953C157.586 42.2297 156.164 42.6468 154.457 42.6468C152.41 42.6468 150.665 41.9642 149.225 40.599C147.802 39.2337 147.091 37.404 147.091 35.1096C147.091 32.9102 147.783 31.1184 149.167 29.7342C150.571 28.35 152.23 27.658 154.145 27.658C156.344 27.658 158.07 28.3027 159.321 29.592C160.591 30.8623 161.227 32.6352 161.227 34.9107C161.227 35.6311 161.199 36.0767 161.141 36.2474H151.301C151.338 37.0247 151.67 37.679 152.296 38.2099C152.922 38.7218 153.661 38.9778 154.515 38.9778C155.974 38.9778 156.923 38.3616 157.359 37.1291Z" fill="white"/>
<path d="M176.49 21.6284V39.6889C176.49 40.5423 176.527 41.3859 176.604 42.2203H172.45C172.375 41.7651 172.337 41.3102 172.337 40.855C171.996 41.348 171.483 41.7557 170.801 42.0781C170.137 42.3814 169.389 42.5331 168.555 42.5331C166.544 42.5331 164.875 41.8411 163.549 40.4569C162.221 39.0537 161.558 37.2714 161.558 35.1098C161.558 32.9861 162.202 31.2323 163.491 29.8481C164.781 28.4449 166.422 27.7435 168.412 27.7435C170.346 27.7435 171.616 28.2269 172.223 29.1939V21.6284H176.49ZM166.819 32.5501C166.212 33.1568 165.909 34.0195 165.909 35.1382C165.909 36.2569 166.212 37.1292 166.819 37.7549C167.445 38.3617 168.203 38.665 169.094 38.665C169.986 38.665 170.734 38.3617 171.342 37.7549C171.967 37.1292 172.28 36.2569 172.28 35.1382C172.28 34.0195 171.967 33.1568 171.342 32.5501C170.734 31.9433 169.986 31.64 169.094 31.64C168.203 31.64 167.445 31.9433 166.819 32.5501Z" fill="white"/>
<path d="M183.286 42.2203H178.963V28.0847H183.286V42.2203ZM179.333 25.5534C178.839 25.0604 178.593 24.4631 178.593 23.7615C178.593 23.06 178.839 22.4627 179.333 21.9697C179.825 21.4767 180.413 21.2302 181.096 21.2302C181.798 21.2302 182.395 21.4767 182.888 21.9697C183.4 22.4627 183.656 23.06 183.656 23.7615C183.656 24.4631 183.4 25.0604 182.888 25.5534C182.395 26.0463 181.798 26.2928 181.096 26.2928C180.413 26.2928 179.825 26.0463 179.333 25.5534Z" fill="white"/>
<path d="M184.799 38.3236C184.799 37.1291 185.188 36.1715 185.965 35.451C186.742 34.7115 187.747 34.247 188.979 34.0574L192.307 33.5453C192.99 33.4506 193.331 33.1282 193.331 32.5784C193.331 32.1423 193.141 31.7821 192.763 31.4976C192.402 31.1943 191.9 31.0424 191.255 31.0424C190.534 31.0424 189.956 31.2512 189.52 31.6683C189.103 32.0664 188.876 32.55 188.838 33.1188L185.084 32.3509C185.178 31.1753 185.757 30.104 186.818 29.1369C187.899 28.1509 189.387 27.658 191.283 27.658C193.426 27.658 195 28.1699 196.005 29.1938C197.028 30.2177 197.541 31.5261 197.541 33.1188V40.0301C197.541 40.9212 197.598 41.6513 197.711 42.2202H193.815C193.72 41.841 193.673 41.31 193.673 40.6274C192.857 41.9547 191.53 42.6183 189.691 42.6183C188.193 42.6183 186.998 42.2012 186.108 41.3669C185.235 40.5137 184.799 39.4992 184.799 38.3236ZM190.743 39.4898C191.483 39.4898 192.099 39.2717 192.591 38.8356C193.086 38.3995 193.331 37.679 193.331 36.6739V36.0482L190.658 36.4749C189.596 36.6455 189.065 37.167 189.065 38.0392C189.065 38.4373 189.197 38.7787 189.463 39.0631C189.747 39.3475 190.174 39.4898 190.743 39.4898Z" fill="white"/>
<path d="M36.3131 33.8568C36.3133 34.1023 36.3781 34.3433 36.5008 34.556C36.6237 34.7684 36.8001 34.945 37.0127 35.0677L41.416 37.6095C41.6285 37.732 41.8695 37.7964 42.1148 37.7963C42.36 37.7962 42.601 37.7315 42.8133 37.6089C43.0257 37.4862 43.2021 37.3097 43.3246 37.0973C43.4472 36.8849 43.5117 36.6438 43.5117 36.3986V23.0019C43.5117 22.7569 43.4473 22.516 43.3248 22.3037C43.2023 22.0914 43.0259 21.9151 42.8137 21.7926L31.2118 15.098C30.9994 14.9755 30.7586 14.9111 30.5134 14.9111C30.2684 14.9112 30.0276 14.9757 29.8152 15.0982C29.6029 15.2208 29.4265 15.397 29.3038 15.6092C29.1811 15.8214 29.1164 16.0622 29.1162 16.3073V21.3924C29.1163 21.6377 29.1808 21.8786 29.3034 22.0912C29.4259 22.3036 29.602 22.4803 29.8143 22.6033L35.6137 25.9484C35.8262 26.0707 36.0026 26.2469 36.1251 26.4593C36.2477 26.6717 36.3121 26.9126 36.3117 27.1578L36.3131 33.8568Z" fill="#82A5FF"/>
<path d="M27.7161 32.1227V38.8218C27.716 39.0672 27.7804 39.3082 27.9029 39.5207C28.0254 39.7333 28.2018 39.9098 28.4141 40.0326L32.8174 42.5744C33.03 42.697 33.271 42.7614 33.5162 42.7613C33.7615 42.7611 34.0024 42.6965 34.2148 42.5738C34.4272 42.4511 34.6035 42.2746 34.7261 42.0622C34.8486 41.8498 34.9132 41.6088 34.9132 41.3636V27.9669C34.913 27.7215 34.8483 27.4803 34.7255 27.2678C34.6028 27.0552 34.4262 26.8787 34.2136 26.756L22.6133 20.0585C22.4009 19.9356 22.16 19.8707 21.9147 19.8706C21.6694 19.8704 21.4283 19.9349 21.2159 20.0575C21.0034 20.1801 20.827 20.3565 20.7044 20.569C20.5818 20.7815 20.5174 21.0226 20.5176 21.2679V26.353C20.5172 26.5981 20.5816 26.8391 20.7042 27.0515C20.8267 27.2637 21.0032 27.44 21.2156 27.5624L27.018 30.9119C27.2303 31.0348 27.4066 31.2114 27.5292 31.4239C27.6517 31.6364 27.7161 31.8774 27.7161 32.1227Z" fill="#0077CC"/>
<path d="M25.6155 31.721L14.0137 25.0279C13.8012 24.9054 13.5602 24.841 13.3149 24.8411C13.0696 24.8412 12.8287 24.9058 12.6164 25.0285C12.404 25.1513 12.2277 25.3277 12.1051 25.5402C11.9825 25.7526 11.918 25.9935 11.918 26.2387V39.6369C11.9179 39.882 11.9824 40.1228 12.1049 40.3351C12.2275 40.5475 12.4038 40.7237 12.616 40.8462L19.8145 44.9962L24.2179 47.5379C24.4302 47.6609 24.6712 47.7257 24.9163 47.7258C25.1617 47.726 25.4027 47.6616 25.6153 47.539C25.8278 47.4163 26.0042 47.2399 26.1267 47.0274C26.2493 46.815 26.3137 46.5738 26.3135 46.3286V32.9319C26.3134 32.6867 26.2489 32.4456 26.1263 32.2332C26.0038 32.0207 25.8276 31.8441 25.6155 31.721Z" fill="#004ED6"/>
</g>
</g>
<defs>
<clipPath id="clip0_15_6347">
<rect width="185.95" height="37.19" fill="white" transform="translate(12.0254 12.6851)"/>
</clipPath>
</defs>
</svg>
