<svg width="99" height="98" viewBox="0 0 99 98" fill="none" xmlns="http://www.w3.org/2000/svg">
<g clip-path="url(#clip0_93_245)">
<g clip-path="url(#clip1_93_245)">
<g clip-path="url(#clip2_93_245)">
<mask id="mask0_93_245" style="mask-type:luminance" maskUnits="userSpaceOnUse" x="0" y="0" width="99" height="98">
<path d="M98.896 0H0.895996V98H98.896V0Z" fill="white"/>
</mask>
<g mask="url(#mask0_93_245)">
<path d="M98.896 49C98.896 58.6913 96.0222 68.1649 90.6381 76.223C85.2539 84.2809 77.6011 90.5614 68.6475 94.2701C59.694 97.9788 49.8417 98.9492 40.3366 97.0585C30.8315 95.1678 22.1005 90.5011 15.2478 83.6482C8.39502 76.7955 3.72822 68.0645 1.83754 58.5594C-0.0531365 49.0544 0.917227 39.2021 4.62592 30.2485C8.33462 21.2949 14.6151 13.6422 22.6731 8.25799C30.7311 2.8738 40.2047 0 49.896 0C62.8916 0 75.355 5.16249 84.5443 14.3518C93.7335 23.541 98.896 36.0044 98.896 49Z" fill="white"/>
<mask id="mask1_93_245" style="mask-type:luminance" maskUnits="userSpaceOnUse" x="22" y="25" width="56" height="48">
<path d="M77.1759 25.1682H22.7959V72.6091H77.1759V25.1682Z" fill="white"/>
</mask>
<g mask="url(#mask1_93_245)">
<path d="M63.8622 39.613C62.8708 39.0465 61.5963 39.0465 60.4634 39.613L52.533 44.2862L47.1516 47.2601L39.3628 51.9334C38.3716 52.4999 37.097 52.4999 35.9641 51.9334L29.8746 48.2515C28.8833 47.685 28.1753 46.5521 28.1753 45.2776V38.1969C28.1753 37.0639 28.7417 35.931 29.8746 35.2229L35.9641 31.6825C36.9554 31.1161 38.2299 31.1161 39.3628 31.6825L45.4523 35.3646C46.4436 35.931 47.1516 37.0639 47.1516 38.3385V43.0117L52.533 39.8963V35.0813C52.533 33.9484 51.9665 32.8154 50.8336 32.1074L39.5045 25.4515C38.5131 24.885 37.2386 24.885 36.1057 25.4515L24.4933 32.249C23.3604 32.8154 22.7939 33.9484 22.7939 35.0813V48.3931C22.7939 49.526 23.3604 50.6589 24.4933 51.3669L35.9641 58.0229C36.9554 58.5893 38.2299 58.5893 39.3628 58.0229L47.1516 53.4912L52.533 50.3757L60.3218 45.844C61.3132 45.2776 62.5877 45.2776 63.7206 45.844L69.81 49.3844C70.8013 49.9508 71.5093 51.0838 71.5093 52.3583V59.439C71.5093 60.5719 70.9429 61.7048 69.81 62.413L63.8622 65.9533C62.8708 66.5198 61.5963 66.5198 60.4634 65.9533L54.3739 62.413C53.3827 61.8465 52.6747 60.7136 52.6747 59.439V54.9074L47.2932 58.0229V62.6962C47.2932 63.8291 47.8597 64.962 48.9926 65.6701L60.4634 72.326C61.4547 72.8924 62.7293 72.8924 63.8622 72.326L75.333 65.6701C76.3243 65.1036 77.0324 63.9707 77.0324 62.6962V49.2428C77.0324 48.1099 76.4659 46.977 75.333 46.2689L63.8622 39.613Z" fill="#8247E5"/>
</g>
</g>
</g>
</g>
</g>
<defs>
<clipPath id="clip0_93_245">
<rect width="98" height="98" fill="white" transform="translate(0.895996)"/>
</clipPath>
<clipPath id="clip1_93_245">
<rect width="98" height="98" fill="white" transform="translate(0.895996)"/>
</clipPath>
<clipPath id="clip2_93_245">
<rect width="98" height="98" fill="white" transform="translate(0.895996)"/>
</clipPath>
</defs>
</svg>
