<svg width="33" height="32" viewBox="0 0 33 32" fill="none" xmlns="http://www.w3.org/2000/svg">
<g clip-path="url(#clip0_93_2639)">
<path d="M32.1201 16C32.1201 7.43959 25.1805 0.5 16.6201 0.5C8.0597 0.5 1.12012 7.43959 1.12012 16C1.12012 24.5604 8.0597 31.5 16.6201 31.5C25.1805 31.5 32.1201 24.5604 32.1201 16Z" stroke="white"/>
<path d="M16.6201 9C20.4588 9 23.6201 12.1613 23.6201 16C23.6201 19.8669 20.4588 23 16.6201 23C12.7532 23 9.62012 19.8669 9.62012 16C9.62012 12.1613 12.7532 9 16.6201 9ZM19.8378 13.7702C19.8661 13.6855 19.8661 13.6008 19.8378 13.4879C19.8378 13.4315 19.7814 13.3468 19.7532 13.3185C19.6685 13.2339 19.5274 13.2339 19.4709 13.2339C19.2169 13.2339 18.7935 13.375 16.8459 14.1935C16.1685 14.4758 14.8136 15.0403 12.7814 15.9435C12.4427 16.0847 12.2733 16.1976 12.2451 16.3387C12.2169 16.5645 12.5838 16.6492 13.0072 16.7903C13.3741 16.9032 13.854 17.0444 14.108 17.0444C14.3338 17.0444 14.5878 16.9597 14.8701 16.7621C16.7612 15.4637 17.7491 14.8145 17.8056 14.8145C17.862 14.8145 17.9185 14.7863 17.9467 14.8145C18.0032 14.871 18.0032 14.9274 17.9749 14.9556C17.9467 15.0968 16.1685 16.7339 16.0556 16.8468C15.6604 17.2419 15.2088 17.496 15.9145 17.9476C16.5072 18.3427 16.8459 18.5968 17.4669 18.9919C17.862 19.246 18.1725 19.5565 18.5677 19.5282C18.7653 19.5 18.9628 19.3306 19.0475 18.7944C19.3016 17.5806 19.7532 14.871 19.8378 13.7702Z" fill="white"/>
</g>
<defs>
<clipPath id="clip0_93_2639">
<rect width="32" height="32" fill="white" transform="translate(0.620117)"/>
</clipPath>
</defs>
</svg>
