<svg width="528" height="465" viewBox="0 0 528 465" fill="none" xmlns="http://www.w3.org/2000/svg">
<g clip-path="url(#clip0_93_2415)">
<path d="M270.737 464.156C383.517 464.156 474.944 372.729 474.944 259.949C474.944 147.168 383.517 55.7414 270.737 55.7414C157.956 55.7414 66.5293 147.168 66.5293 259.949C66.5293 372.729 157.956 464.156 270.737 464.156Z" stroke="white" stroke-width="1.16339" stroke-miterlimit="10"/>
<path d="M269.588 380.808C336.971 380.808 391.596 326.184 391.596 258.8C391.596 191.417 336.971 136.792 269.588 136.792C202.205 136.792 147.58 191.417 147.58 258.8C147.58 326.184 202.205 380.808 269.588 380.808Z" stroke="white" stroke-width="1.16339" stroke-miterlimit="10"/>
<path d="M376 83.968L410.544 40.968H466" stroke="white" stroke-width="1.16339" stroke-miterlimit="10"/>
<path d="M452 165.512L470.544 146.968H526" stroke="white" stroke-width="1.16339" stroke-miterlimit="10"/>
<path d="M357.516 444.694L376.562 463.739H439.513" stroke="white" stroke-width="1.16339" stroke-miterlimit="10"/>
<path d="M183.512 444.694L164.466 463.739H101.515" stroke="white" stroke-width="1.16339" stroke-miterlimit="10"/>
<path d="M82.6614 182.804L58.3449 158.487H0" stroke="white" stroke-width="1.16339" stroke-miterlimit="10"/>
<path d="M173.767 80.2835L149.45 55.967H91.1055" stroke="white" stroke-width="1.16339" stroke-miterlimit="10"/>
<path d="M4.72679 145.456C6.87079 143.856 8.56678 142.408 9.81479 141.112C11.0628 139.8 11.6868 138.576 11.6868 137.44C11.6868 137.056 11.5988 136.76 11.4228 136.552C11.2628 136.344 11.0468 136.24 10.7748 136.24C10.4548 136.24 10.1988 136.408 10.0068 136.744C9.83078 137.064 9.76679 137.56 9.81479 138.232H4.65479C4.70279 136.744 5.02279 135.52 5.61479 134.56C6.22279 133.6 7.00679 132.896 7.96679 132.448C8.92679 132 9.98279 131.776 11.1348 131.776C13.1828 131.776 14.6788 132.272 15.6228 133.264C16.5828 134.24 17.0628 135.496 17.0628 137.032C17.0628 138.648 16.5428 140.168 15.5028 141.592C14.4788 143 13.1908 144.192 11.6388 145.168H17.1348V149.464H4.72679V145.456ZM31.6645 136.84H24.7045V138.856C25.0085 138.584 25.4005 138.368 25.8805 138.208C26.3765 138.048 26.9285 137.968 27.5365 137.968C28.6245 137.968 29.5445 138.224 30.2965 138.736C31.0485 139.248 31.6085 139.936 31.9765 140.8C32.3445 141.648 32.5285 142.592 32.5285 143.632C32.5285 145.552 31.9845 147.048 30.8965 148.12C29.8245 149.176 28.3445 149.704 26.4565 149.704C25.0805 149.704 23.8885 149.464 22.8805 148.984C21.8885 148.504 21.1285 147.84 20.6005 146.992C20.0885 146.144 19.8485 145.176 19.8805 144.088H25.0645C25.0645 144.344 25.1525 144.584 25.3285 144.808C25.5045 145.032 25.7925 145.144 26.1925 145.144C26.5925 145.144 26.8885 145 27.0805 144.712C27.2725 144.424 27.3685 144.032 27.3685 143.536C27.3685 143.072 27.2565 142.72 27.0325 142.48C26.8245 142.24 26.5205 142.12 26.1205 142.12C25.7845 142.12 25.5285 142.2 25.3525 142.36C25.1765 142.52 25.0885 142.704 25.0885 142.912H19.9045V132.16H31.6645V136.84ZM33.9963 136.744C33.9963 135.336 34.3963 134.264 35.1963 133.528C35.9963 132.776 37.0443 132.4 38.3403 132.4C39.6203 132.4 40.6523 132.776 41.4363 133.528C42.2363 134.264 42.6363 135.336 42.6363 136.744C42.6363 138.152 42.2363 139.224 41.4363 139.96C40.6523 140.696 39.6203 141.064 38.3403 141.064C37.0443 141.064 35.9963 140.696 35.1963 139.96C34.3963 139.224 33.9963 138.152 33.9963 136.744ZM51.7803 132.64L42.8283 149.704H37.7403L46.6923 132.64H51.7803ZM38.2923 135.496C37.7483 135.496 37.4763 135.912 37.4763 136.744C37.4763 137.56 37.7483 137.968 38.2923 137.968C38.5803 137.968 38.7963 137.864 38.9403 137.656C39.1003 137.448 39.1803 137.144 39.1803 136.744C39.1803 136.328 39.1003 136.016 38.9403 135.808C38.7963 135.6 38.5803 135.496 38.2923 135.496ZM46.8843 145.6C46.8843 144.192 47.2843 143.12 48.0843 142.384C48.8843 141.632 49.9243 141.256 51.2043 141.256C52.5003 141.256 53.5403 141.632 54.3243 142.384C55.1083 143.12 55.5003 144.192 55.5003 145.6C55.5003 147.008 55.1083 148.088 54.3243 148.84C53.5403 149.576 52.5003 149.944 51.2043 149.944C49.9243 149.944 48.8843 149.576 48.0843 148.84C47.2843 148.088 46.8843 147.008 46.8843 145.6ZM51.1803 144.352C50.6203 144.352 50.3403 144.768 50.3403 145.6C50.3403 146.432 50.6203 146.848 51.1803 146.848C51.4523 146.848 51.6603 146.744 51.8043 146.536C51.9643 146.328 52.0443 146.016 52.0443 145.6C52.0443 145.2 51.9643 144.896 51.8043 144.688C51.6603 144.464 51.4523 144.352 51.1803 144.352Z" fill="white"/>
<path d="M97.9097 33.4683V28.4763H106.046V46.0203H100.454V33.4683H97.9097ZM108.024 36.9963C108.024 34.2283 108.608 32.0523 109.776 30.4683C110.96 28.8843 112.776 28.0923 115.224 28.0923C117.656 28.0923 119.464 28.8923 120.648 30.4923C121.832 32.0763 122.424 34.2443 122.424 36.9963C122.424 39.7643 121.832 41.9483 120.648 43.5483C119.464 45.1323 117.656 45.9243 115.224 45.9243C112.776 45.9243 110.96 45.1323 109.776 43.5483C108.608 41.9483 108.024 39.7643 108.024 36.9963ZM117.168 36.9963C117.168 35.7163 117.04 34.7563 116.784 34.1163C116.528 33.4603 116.008 33.1323 115.224 33.1323C114.424 33.1323 113.896 33.4603 113.64 34.1163C113.384 34.7563 113.256 35.7163 113.256 36.9963C113.256 38.2923 113.384 39.2683 113.64 39.9243C113.896 40.5643 114.424 40.8843 115.224 40.8843C116.008 40.8843 116.528 40.5643 116.784 39.9243C117.04 39.2683 117.168 38.2923 117.168 36.9963ZM123.65 33.0603C123.65 31.6523 124.05 30.5803 124.85 29.8443C125.65 29.0923 126.698 28.7163 127.994 28.7163C129.274 28.7163 130.306 29.0923 131.09 29.8443C131.89 30.5803 132.29 31.6523 132.29 33.0603C132.29 34.4683 131.89 35.5403 131.09 36.2763C130.306 37.0123 129.274 37.3803 127.994 37.3803C126.698 37.3803 125.65 37.0123 124.85 36.2763C124.05 35.5403 123.65 34.4683 123.65 33.0603ZM141.434 28.9563L132.482 46.0203H127.394L136.346 28.9563H141.434ZM127.946 31.8123C127.402 31.8123 127.13 32.2283 127.13 33.0603C127.13 33.8763 127.402 34.2843 127.946 34.2843C128.234 34.2843 128.45 34.1803 128.594 33.9723C128.754 33.7643 128.834 33.4603 128.834 33.0603C128.834 32.6443 128.754 32.3323 128.594 32.1243C128.45 31.9163 128.234 31.8123 127.946 31.8123ZM136.538 41.9163C136.538 40.5083 136.938 39.4363 137.738 38.7003C138.538 37.9483 139.578 37.5723 140.858 37.5723C142.154 37.5723 143.194 37.9483 143.978 38.7003C144.762 39.4363 145.154 40.5083 145.154 41.9163C145.154 43.3243 144.762 44.4043 143.978 45.1563C143.194 45.8923 142.154 46.2603 140.858 46.2603C139.578 46.2603 138.538 45.8923 137.738 45.1563C136.938 44.4043 136.538 43.3243 136.538 41.9163ZM140.834 40.6683C140.274 40.6683 139.994 41.0843 139.994 41.9163C139.994 42.7483 140.274 43.1643 140.834 43.1643C141.106 43.1643 141.314 43.0603 141.458 42.8523C141.618 42.6443 141.698 42.3323 141.698 41.9163C141.698 41.5163 141.618 41.2123 141.458 41.0043C141.314 40.7803 141.106 40.6683 140.834 40.6683Z" fill="white"/>
<path d="M238.856 58.179L263.173 33.8625H321.518" stroke="white" stroke-width="1.16339" stroke-miterlimit="10"/>
<path d="M282.086 14.4014H275.126V16.4174C275.43 16.1454 275.822 15.9294 276.302 15.7694C276.798 15.6094 277.35 15.5294 277.958 15.5294C279.046 15.5294 279.966 15.7854 280.718 16.2974C281.47 16.8094 282.03 17.4974 282.398 18.3614C282.766 19.2094 282.95 20.1534 282.95 21.1934C282.95 23.1134 282.406 24.6094 281.318 25.6814C280.246 26.7374 278.766 27.2654 276.878 27.2654C275.502 27.2654 274.31 27.0254 273.302 26.5454C272.31 26.0654 271.55 25.4014 271.022 24.5534C270.51 23.7054 270.27 22.7374 270.302 21.6494H275.486C275.486 21.9054 275.574 22.1454 275.75 22.3694C275.926 22.5934 276.214 22.7054 276.614 22.7054C277.014 22.7054 277.31 22.5614 277.502 22.2734C277.694 21.9854 277.79 21.5934 277.79 21.0974C277.79 20.6334 277.678 20.2814 277.454 20.0414C277.246 19.8014 276.942 19.6814 276.542 19.6814C276.206 19.6814 275.95 19.7614 275.774 19.9214C275.598 20.0814 275.51 20.2654 275.51 20.4734H270.326V9.72133H282.086V14.4014ZM284.418 14.3054C284.418 12.8974 284.818 11.8254 285.618 11.0894C286.418 10.3373 287.466 9.96133 288.762 9.96133C290.042 9.96133 291.074 10.3373 291.858 11.0894C292.658 11.8254 293.058 12.8974 293.058 14.3054C293.058 15.7134 292.658 16.7854 291.858 17.5214C291.074 18.2574 290.042 18.6254 288.762 18.6254C287.466 18.6254 286.418 18.2574 285.618 17.5214C284.818 16.7854 284.418 15.7134 284.418 14.3054ZM302.202 10.2013L293.25 27.2654H288.162L297.114 10.2013H302.202ZM288.714 13.0574C288.17 13.0574 287.898 13.4734 287.898 14.3054C287.898 15.1214 288.17 15.5294 288.714 15.5294C289.002 15.5294 289.218 15.4254 289.362 15.2174C289.522 15.0094 289.602 14.7054 289.602 14.3054C289.602 13.8894 289.522 13.5774 289.362 13.3694C289.218 13.1614 289.002 13.0574 288.714 13.0574ZM297.306 23.1614C297.306 21.7534 297.706 20.6814 298.506 19.9454C299.306 19.1934 300.346 18.8174 301.626 18.8174C302.922 18.8174 303.962 19.1934 304.746 19.9454C305.53 20.6814 305.922 21.7534 305.922 23.1614C305.922 24.5694 305.53 25.6494 304.746 26.4014C303.962 27.1374 302.922 27.5054 301.626 27.5054C300.346 27.5054 299.306 27.1374 298.506 26.4014C297.706 25.6494 297.306 24.5694 297.306 23.1614ZM301.602 21.9134C301.042 21.9134 300.762 22.3294 300.762 23.1614C300.762 23.9934 301.042 24.4094 301.602 24.4094C301.874 24.4094 302.082 24.3054 302.226 24.0974C302.386 23.8894 302.466 23.5774 302.466 23.1614C302.466 22.7614 302.386 22.4574 302.226 22.2494C302.082 22.0254 301.874 21.9134 301.602 21.9134Z" fill="white"/>
<path d="M416.947 17.1836V12.1916H425.083V29.7356H419.491V17.1836H416.947ZM440.309 16.8716H433.349V18.8876C433.653 18.6156 434.045 18.3996 434.525 18.2396C435.021 18.0796 435.573 17.9996 436.181 17.9996C437.269 17.9996 438.189 18.2556 438.941 18.7676C439.693 19.2796 440.253 19.9676 440.621 20.8316C440.989 21.6796 441.173 22.6236 441.173 23.6636C441.173 25.5836 440.629 27.0796 439.541 28.1516C438.469 29.2076 436.989 29.7356 435.101 29.7356C433.725 29.7356 432.533 29.4956 431.525 29.0156C430.533 28.5356 429.773 27.8716 429.245 27.0236C428.733 26.1756 428.493 25.2076 428.525 24.1196H433.709C433.709 24.3756 433.797 24.6156 433.973 24.8396C434.149 25.0636 434.437 25.1756 434.837 25.1756C435.237 25.1756 435.533 25.0316 435.725 24.7436C435.917 24.4556 436.013 24.0636 436.013 23.5676C436.013 23.1036 435.901 22.7516 435.677 22.5116C435.469 22.2716 435.165 22.1516 434.765 22.1516C434.429 22.1516 434.173 22.2316 433.997 22.3916C433.821 22.5516 433.733 22.7356 433.733 22.9436H428.549V12.1916H440.309V16.8716ZM442.641 16.7756C442.641 15.3676 443.041 14.2956 443.841 13.5596C444.641 12.8076 445.689 12.4316 446.985 12.4316C448.265 12.4316 449.297 12.8076 450.081 13.5596C450.881 14.2956 451.281 15.3676 451.281 16.7756C451.281 18.1836 450.881 19.2556 450.081 19.9916C449.297 20.7276 448.265 21.0956 446.985 21.0956C445.689 21.0956 444.641 20.7276 443.841 19.9916C443.041 19.2556 442.641 18.1836 442.641 16.7756ZM460.425 12.6716L451.473 29.7356H446.385L455.337 12.6716H460.425ZM446.937 15.5276C446.393 15.5276 446.121 15.9436 446.121 16.7756C446.121 17.5916 446.393 17.9996 446.937 17.9996C447.225 17.9996 447.441 17.8956 447.585 17.6876C447.745 17.4796 447.825 17.1756 447.825 16.7756C447.825 16.3596 447.745 16.0476 447.585 15.8396C447.441 15.6316 447.225 15.5276 446.937 15.5276ZM455.529 25.6316C455.529 24.2236 455.929 23.1516 456.729 22.4156C457.529 21.6636 458.569 21.2876 459.849 21.2876C461.145 21.2876 462.185 21.6636 462.969 22.4156C463.753 23.1516 464.145 24.2236 464.145 25.6316C464.145 27.0396 463.753 28.1196 462.969 28.8716C462.185 29.6076 461.145 29.9756 459.849 29.9756C458.569 29.9756 457.529 29.6076 456.729 28.8716C455.929 28.1196 455.529 27.0396 455.529 25.6316ZM459.825 24.3836C459.265 24.3836 458.985 24.7996 458.985 25.6316C458.985 26.4636 459.265 26.8796 459.825 26.8796C460.097 26.8796 460.305 26.7756 460.449 26.5676C460.609 26.3596 460.689 26.0476 460.689 25.6316C460.689 25.2316 460.609 24.9276 460.449 24.7196C460.305 24.4956 460.097 24.3836 459.825 24.3836Z" fill="white"/>
<path d="M476.947 123.184V118.192H485.083V135.736H479.491V123.184H476.947ZM487.061 126.712C487.061 123.944 487.645 121.768 488.813 120.184C489.997 118.6 491.813 117.808 494.261 117.808C496.693 117.808 498.501 118.608 499.685 120.208C500.869 121.792 501.461 123.96 501.461 126.712C501.461 129.48 500.869 131.664 499.685 133.264C498.501 134.848 496.693 135.64 494.261 135.64C491.813 135.64 489.997 134.848 488.813 133.264C487.645 131.664 487.061 129.48 487.061 126.712ZM496.205 126.712C496.205 125.432 496.077 124.472 495.821 123.832C495.565 123.176 495.045 122.848 494.261 122.848C493.461 122.848 492.933 123.176 492.677 123.832C492.421 124.472 492.293 125.432 492.293 126.712C492.293 128.008 492.421 128.984 492.677 129.64C492.933 130.28 493.461 130.6 494.261 130.6C495.045 130.6 495.565 130.28 495.821 129.64C496.077 128.984 496.205 128.008 496.205 126.712ZM502.688 122.776C502.688 121.368 503.088 120.296 503.888 119.56C504.688 118.808 505.736 118.432 507.032 118.432C508.312 118.432 509.344 118.808 510.128 119.56C510.928 120.296 511.328 121.368 511.328 122.776C511.328 124.184 510.928 125.256 510.128 125.992C509.344 126.728 508.312 127.096 507.032 127.096C505.736 127.096 504.688 126.728 503.888 125.992C503.088 125.256 502.688 124.184 502.688 122.776ZM520.472 118.672L511.52 135.736H506.432L515.384 118.672H520.472ZM506.984 121.528C506.44 121.528 506.168 121.944 506.168 122.776C506.168 123.592 506.44 124 506.984 124C507.272 124 507.488 123.896 507.632 123.688C507.792 123.48 507.872 123.176 507.872 122.776C507.872 122.36 507.792 122.048 507.632 121.84C507.488 121.632 507.272 121.528 506.984 121.528ZM515.576 131.632C515.576 130.224 515.976 129.152 516.776 128.416C517.576 127.664 518.616 127.288 519.896 127.288C521.192 127.288 522.232 127.664 523.016 128.416C523.8 129.152 524.192 130.224 524.192 131.632C524.192 133.04 523.8 134.12 523.016 134.872C522.232 135.608 521.192 135.976 519.896 135.976C518.616 135.976 517.576 135.608 516.776 134.872C515.976 134.12 515.576 133.04 515.576 131.632ZM519.872 130.384C519.312 130.384 519.032 130.8 519.032 131.632C519.032 132.464 519.312 132.88 519.872 132.88C520.144 132.88 520.352 132.776 520.496 132.568C520.656 132.36 520.736 132.048 520.736 131.632C520.736 131.232 520.656 130.928 520.496 130.72C520.352 130.496 520.144 130.384 519.872 130.384Z" fill="white"/>
<path d="M385.336 450.057C387.48 448.457 389.176 447.009 390.424 445.713C391.672 444.401 392.296 443.177 392.296 442.041C392.296 441.657 392.208 441.361 392.032 441.153C391.872 440.945 391.656 440.841 391.384 440.841C391.064 440.841 390.808 441.009 390.616 441.345C390.44 441.665 390.376 442.161 390.424 442.833H385.264C385.312 441.345 385.632 440.121 386.224 439.161C386.832 438.201 387.616 437.497 388.576 437.049C389.536 436.601 390.592 436.377 391.744 436.377C393.792 436.377 395.288 436.873 396.232 437.865C397.192 438.841 397.672 440.097 397.672 441.633C397.672 443.249 397.152 444.769 396.112 446.193C395.088 447.601 393.8 448.793 392.248 449.769H397.744V454.065H385.336V450.057ZM412.274 441.441H405.314V443.457C405.618 443.185 406.01 442.969 406.49 442.809C406.986 442.649 407.538 442.569 408.146 442.569C409.234 442.569 410.154 442.825 410.906 443.337C411.658 443.849 412.218 444.537 412.586 445.401C412.954 446.249 413.138 447.193 413.138 448.233C413.138 450.153 412.594 451.649 411.506 452.721C410.434 453.777 408.954 454.305 407.066 454.305C405.69 454.305 404.498 454.065 403.49 453.585C402.498 453.105 401.738 452.441 401.21 451.593C400.698 450.745 400.458 449.777 400.49 448.689H405.674C405.674 448.945 405.762 449.185 405.938 449.409C406.114 449.633 406.402 449.745 406.802 449.745C407.202 449.745 407.498 449.601 407.69 449.313C407.882 449.025 407.978 448.633 407.978 448.137C407.978 447.673 407.866 447.321 407.642 447.081C407.434 446.841 407.13 446.721 406.73 446.721C406.394 446.721 406.138 446.801 405.962 446.961C405.786 447.121 405.698 447.305 405.698 447.513H400.514V436.761H412.274V441.441ZM414.606 441.345C414.606 439.937 415.006 438.865 415.806 438.129C416.606 437.377 417.654 437.001 418.95 437.001C420.23 437.001 421.262 437.377 422.046 438.129C422.846 438.865 423.246 439.937 423.246 441.345C423.246 442.753 422.846 443.825 422.046 444.561C421.262 445.297 420.23 445.665 418.95 445.665C417.654 445.665 416.606 445.297 415.806 444.561C415.006 443.825 414.606 442.753 414.606 441.345ZM432.39 437.241L423.438 454.305H418.35L427.302 437.241H432.39ZM418.902 440.097C418.358 440.097 418.086 440.513 418.086 441.345C418.086 442.161 418.358 442.569 418.902 442.569C419.19 442.569 419.406 442.465 419.55 442.257C419.71 442.049 419.79 441.745 419.79 441.345C419.79 440.929 419.71 440.617 419.55 440.409C419.406 440.201 419.19 440.097 418.902 440.097ZM427.494 450.201C427.494 448.793 427.894 447.721 428.694 446.985C429.494 446.233 430.534 445.857 431.814 445.857C433.11 445.857 434.15 446.233 434.934 446.985C435.718 447.721 436.11 448.793 436.11 450.201C436.11 451.609 435.718 452.689 434.934 453.441C434.15 454.177 433.11 454.545 431.814 454.545C430.534 454.545 429.494 454.177 428.694 453.441C427.894 452.689 427.494 451.609 427.494 450.201ZM431.79 448.953C431.23 448.953 430.95 449.369 430.95 450.201C430.95 451.033 431.23 451.449 431.79 451.449C432.062 451.449 432.27 451.345 432.414 451.137C432.574 450.929 432.654 450.617 432.654 450.201C432.654 449.801 432.574 449.497 432.414 449.289C432.27 449.065 432.062 448.953 431.79 448.953Z" fill="white"/>
<path d="M104.904 441.753V436.761H113.04V454.305H107.448V441.753H104.904ZM115.018 445.281C115.018 442.513 115.602 440.337 116.77 438.753C117.954 437.169 119.77 436.377 122.218 436.377C124.65 436.377 126.458 437.177 127.642 438.777C128.826 440.361 129.418 442.529 129.418 445.281C129.418 448.049 128.826 450.233 127.642 451.833C126.458 453.417 124.65 454.209 122.218 454.209C119.77 454.209 117.954 453.417 116.77 451.833C115.602 450.233 115.018 448.049 115.018 445.281ZM124.162 445.281C124.162 444.001 124.034 443.041 123.778 442.401C123.522 441.745 123.002 441.417 122.218 441.417C121.418 441.417 120.89 441.745 120.634 442.401C120.378 443.041 120.25 444.001 120.25 445.281C120.25 446.577 120.378 447.553 120.634 448.209C120.89 448.849 121.418 449.169 122.218 449.169C123.002 449.169 123.522 448.849 123.778 448.209C124.034 447.553 124.162 446.577 124.162 445.281ZM130.645 441.345C130.645 439.937 131.045 438.865 131.845 438.129C132.645 437.377 133.693 437.001 134.989 437.001C136.269 437.001 137.301 437.377 138.085 438.129C138.885 438.865 139.285 439.937 139.285 441.345C139.285 442.753 138.885 443.825 138.085 444.561C137.301 445.297 136.269 445.665 134.989 445.665C133.693 445.665 132.645 445.297 131.845 444.561C131.045 443.825 130.645 442.753 130.645 441.345ZM148.429 437.241L139.477 454.305H134.389L143.341 437.241H148.429ZM134.941 440.097C134.397 440.097 134.125 440.513 134.125 441.345C134.125 442.161 134.397 442.569 134.941 442.569C135.229 442.569 135.445 442.465 135.589 442.257C135.749 442.049 135.829 441.745 135.829 441.345C135.829 440.929 135.749 440.617 135.589 440.409C135.445 440.201 135.229 440.097 134.941 440.097ZM143.533 450.201C143.533 448.793 143.933 447.721 144.733 446.985C145.533 446.233 146.573 445.857 147.853 445.857C149.149 445.857 150.189 446.233 150.973 446.985C151.757 447.721 152.149 448.793 152.149 450.201C152.149 451.609 151.757 452.689 150.973 453.441C150.189 454.177 149.149 454.545 147.853 454.545C146.573 454.545 145.533 454.177 144.733 453.441C143.933 452.689 143.533 451.609 143.533 450.201ZM147.829 448.953C147.269 448.953 146.989 449.369 146.989 450.201C146.989 451.033 147.269 451.449 147.829 451.449C148.101 451.449 148.309 451.345 148.453 451.137C148.613 450.929 148.693 450.617 148.693 450.201C148.693 449.801 148.613 449.497 148.453 449.289C148.309 449.065 148.101 448.953 147.829 448.953Z" fill="white"/>
<path d="M460.238 260.33C460.238 364.777 375.566 449.448 271.119 449.448C166.671 449.448 82 364.777 82 260.33C82 155.882 166.671 71.2107 271.119 71.2107C375.566 71.2107 460.238 155.882 460.238 260.33ZM133.062 260.33C133.062 336.576 194.872 398.386 271.119 398.386C347.365 398.386 409.176 336.576 409.176 260.33C409.176 184.083 347.365 122.273 271.119 122.273C194.872 122.273 133.062 184.083 133.062 260.33Z" fill="#E154B1"/>
<path d="M460.237 259.855C460.299 284.691 455.469 309.295 446.023 332.264C436.576 355.232 422.698 376.116 405.181 393.721C387.664 411.326 366.851 425.309 343.929 434.87C321.008 444.432 296.429 449.385 271.593 449.448L271.465 398.386C289.595 398.34 307.538 394.724 324.271 387.744C341.003 380.764 356.197 370.557 368.984 357.705C381.772 344.853 391.903 329.609 398.799 312.842C405.695 296.074 409.221 278.113 409.175 259.983L460.237 259.855Z" fill="#488DFF"/>
<path d="M271.527 449.448C231.589 449.534 192.649 436.975 160.288 413.57L190.213 372.195C213.836 389.281 242.262 398.449 271.417 398.386L271.527 449.448Z" fill="#4E57FF"/>
<path d="M117.901 149.469C141.312 117.112 174.366 92.9978 212.325 80.5818L228.199 129.114C200.489 138.177 176.36 155.781 159.27 179.401L117.901 149.469Z" fill="#E77FFF"/>
<path d="M160.277 413.561C119.637 384.164 92.3398 339.827 84.3902 290.303C76.4407 240.78 88.4898 190.127 117.887 149.487L159.26 179.415C137.8 209.082 129.004 246.058 134.807 282.21C140.61 318.363 160.537 350.729 190.204 372.189L160.277 413.561Z" fill="#9D61FF"/>
<path d="M424.119 149.169C447.594 181.479 460.238 220.392 460.238 260.33H409.176C409.176 231.175 399.946 202.769 382.809 179.182L424.119 149.169Z" fill="#00C2FF"/>
<path d="M271.119 71.2107C300.964 71.2107 330.385 78.2741 356.977 91.8234C383.569 105.373 406.577 125.023 424.119 149.168L382.809 179.182C370.003 161.556 353.207 147.211 333.795 137.32C314.383 127.429 292.906 122.273 271.119 122.273V71.2107Z" fill="#72E8FF"/>
</g>
<defs>
<clipPath id="clip0_93_2415">
<rect width="528" height="464" fill="white" transform="translate(0 0.784866)"/>
</clipPath>
</defs>
</svg>
